<?xml version="1.0" encoding="UTF-8"?>
<svg version="1.1" xmlns="http://www.w3.org/2000/svg" width="500" height="500">
<path d="M0 0 C165 0 330 0 500 0 C500 165 500 330 500 500 C335 500 170 500 0 500 C0 335 0 170 0 0 Z " fill="#FEFEF2" transform="translate(0,0)"/>
<path d="M0 0 C1.53647825 2.30471737 2.66226759 4.33093476 3.8125 6.8125 C10.16719768 19.45257138 22.85104872 24.74359361 35.6875 29.3125 C36.450625 29.539375 37.21375 29.76625 38 30 C33.65219885 22.06053703 26.24974085 18.15947522 18 15 C18 14.34 18 13.68 18 13 C29.99497358 12.11657314 40.78828021 14.47298763 50.23046875 22.28515625 C56.74422461 28.59760398 60.61199795 35.64709172 64 44 C64.42410156 43.61328125 64.84820312 43.2265625 65.28515625 42.828125 C73.06903347 35.91672632 79.24192727 32.80838379 89.75 32.9375 C90.79607422 32.94426758 90.79607422 32.94426758 91.86328125 32.95117188 C93.57555803 32.9628998 95.28779033 32.98083347 97 33 C93.71524186 42.03709069 86.92454277 49.54480028 81 57 C81.47566406 56.6390625 81.95132813 56.278125 82.44140625 55.90625 C89.7287584 51.07485631 96.56426361 51.49985753 105 52 C103.3982422 55.9761282 100.6263777 58.67101247 97.625 61.625 C97.14289063 62.11484375 96.66078125 62.6046875 96.1640625 63.109375 C93.62756119 65.63209098 91.33763909 67.65545345 88 69 C88.22997874 71.37846433 88.48321491 73.75061266 88.75 76.125 C88.811875 76.79015625 88.87375 77.4553125 88.9375 78.140625 C89.75166379 85.06101723 93.00651153 89.36318928 98 94 C92.58461538 94.36923077 92.58461538 94.36923077 89.625 92.5 C89.08875 92.005 88.5525 91.51 88 91 C89.39759905 94.54518884 89.39759905 94.54518884 91 98 C86.52155815 96.63158721 84.48311469 94.9729835 82 91 C81.41943857 89.28432108 80.88301171 87.55330628 80.3828125 85.8125 C80.12129395 84.91144531 79.85977539 84.01039063 79.59033203 83.08203125 C79.39552246 82.39496094 79.20071289 81.70789063 79 81 C78.98598145 81.87398437 78.98598145 81.87398437 78.97167969 82.765625 C78.61908539 100.35385821 77.69912704 114.71971706 67.07861328 129.21240234 C58.20015591 141.38028481 55.88629417 155.60428337 54.28955078 170.26293945 C52.32718112 187.9770183 52.32718112 187.9770183 46.94921875 192.86328125 C44.69057247 194.39308705 42.40358509 195.71281145 40 197 C37.13208303 198.82503807 34.41366322 200.58633678 32 203 C25.45742574 203.88712871 25.45742574 203.88712871 22.0234375 201.796875 C19.4803966 199.65422778 17.38306062 197.55863007 15.5 194.8125 C13.23360645 192.07394113 10.2424481 191.33171976 7 190 C4.4757517 187.98060136 4.05166468 187.15499404 3 184 C2.32870977 177.80432132 2.82972395 173.17573385 6.02734375 167.7890625 C7.932148 164.28544665 8.12166148 160.95248247 8.09765625 157.015625 C8.09443359 156.08105469 8.09121094 155.14648438 8.08789062 154.18359375 C8.07951172 153.21550781 8.07113281 152.24742187 8.0625 151.25 C8.05573242 149.77466797 8.05573242 149.77466797 8.04882812 148.26953125 C8.03706483 145.84629209 8.02062684 143.42317727 8 141 C7.37222656 140.70738281 6.74445313 140.41476563 6.09765625 140.11328125 C-0.57855924 136.57003839 -3.7178623 126.77619347 -6 120 C-8.10987329 112.79829918 -7.69396699 105.88793398 -4.3359375 99.171875 C-0.95341217 93.67279873 3.11241656 88.85458591 9 86 C7.741875 86.04125 6.48375 86.0825 5.1875 86.125 C1.65408975 86.13593935 -1.49093585 85.75760389 -4.9375 85 C-20.72232183 81.94487319 -36.03459873 83.56724363 -49.765625 92.33984375 C-53.20265334 94.89357984 -56.15161619 97.81207375 -59 101 C-58.11699219 100.45730469 -57.23398438 99.91460937 -56.32421875 99.35546875 C-39.60838 89.28800159 -24.04210857 87.89072031 -5 92 C-6.07799395 94.16100182 -7.16167 96.31880719 -8.25390625 98.47265625 C-8.68574219 99.32730469 -9.11757813 100.18195313 -9.5625 101.0625 C-9.99691406 101.91972656 -10.43132812 102.77695313 -10.87890625 103.66015625 C-12.86442811 107.80415485 -13.14020406 111.13396453 -13.3125 115.6875 C-13.65161531 120.94109599 -14.33220967 124.52421596 -16.9453125 129.03515625 C-22.40405562 139.2045925 -22.48535376 151.67167774 -19.4375 162.5625 C-15.69540869 173.30801916 -9.91653957 182.37864305 -3.13208008 191.40258789 C7.5908788 205.70540798 18.21409269 222.62941661 19 241 C19.0515625 242.00160156 19.103125 243.00320313 19.15625 244.03515625 C19.43023255 254.16109467 18.21500457 264.35498629 15 274 C0.49086555 279.52620638 -18.71725809 278.8756447 -32.8203125 272.78125 C-52.27185195 263.02838899 -61.92837649 244.74998189 -71.4609375 226.234375 C-71.85676025 225.47068604 -72.25258301 224.70699707 -72.66040039 223.92016602 C-73.40612176 222.47502468 -74.14291213 221.0252249 -74.86889648 219.57006836 C-76.61414778 216.17387 -77.99427595 214.00540737 -80.82421875 211.33203125 C-83 209 -83 209 -83.02734375 206.6171875 C-81.49311749 202.70870235 -79.58606953 199.0455119 -77.61523438 195.34765625 C-75.49487984 191.26832722 -74.12655495 187.42696467 -73 183 C-72.01 183.99 -71.02 184.98 -70 186 C-70.04640625 184.84242188 -70.0928125 183.68484375 -70.140625 182.4921875 C-70.17816248 180.95315094 -70.21456051 179.4140863 -70.25 177.875 C-70.28351563 177.11445313 -70.31703125 176.35390625 -70.3515625 175.5703125 C-70.443575 170.23358722 -69.63180635 167.17784716 -66 163 C-63.75 161.625 -63.75 161.625 -62 161 C-61.75765625 161.58007812 -61.5153125 162.16015625 -61.265625 162.7578125 C-60.22055874 165.19362078 -59.11566558 167.59581925 -58 170 C-57.505 171.11375 -57.01 172.2275 -56.5 173.375 C-53.04780674 176.99980293 -49.63441212 177.16615944 -44.84375 178.18359375 C-41.65488285 179.09907896 -39.88475865 180.35912146 -37.9921875 183.12890625 C-36.79850141 185.37999143 -35.75256258 187.68540321 -34.6875 190 C-32.20723166 195.26262064 -28.90399803 198.00649251 -24 201 C-24.50575866 206.05758656 -25.84809468 210.95001755 -29 215 C-34.51663041 218.62805423 -39.6343918 218.43405641 -45.98632812 218.43945312 C-50.49171269 218.48892339 -50.49171269 218.48892339 -54.01953125 221.03515625 C-54.34308594 221.68355469 -54.66664063 222.33195313 -55 223 C-54.01 222.34 -53.02 221.68 -52 221 C-50.68 221 -49.36 221 -48 221 C-47.72027344 221.59167969 -47.44054687 222.18335938 -47.15234375 222.79296875 C-46.75144531 223.58316406 -46.35054688 224.37335938 -45.9375 225.1875 C-45.36322266 226.35345703 -45.36322266 226.35345703 -44.77734375 227.54296875 C-38.94002819 235.61257641 -29.08647977 237.60771177 -20.0625 240.5 C1.49157867 247.42541392 1.49157867 247.42541392 7.875 255 C8.42929687 255.639375 8.98359375 256.27875 9.5546875 256.9375 C11.13804028 259.19698721 12.07344691 261.40924961 13 264 C12.43690688 231.23821851 -7.01845459 207.42443206 -29.45361328 185.48291016 C-31.25164852 183.75868123 -33.1014782 182.11272282 -35 180.5 C-47.53000693 169.78319062 -59.13253754 158.20471976 -64 142 C-64 141.01 -64 140.02 -64 139 C-64.95519531 139.3609375 -65.91039062 139.721875 -66.89453125 140.09375 C-75.87362395 143.36724402 -84.36121822 146.43050939 -93.625 142.4375 C-96 140 -96 140 -97.25 136.75 C-96.69009353 128.35140296 -88.94193114 122.78717084 -83.171875 117.296875 C-79.24195883 113.14077661 -78.65066995 109.63913955 -78 104 C-76 106 -76 106 -75.625 109.1875 C-76.42418201 117.31251715 -80.97715543 121.22022876 -86.9765625 126.203125 C-89.77441281 128.68770249 -90.92929579 130.30709872 -91.3125 134.0625 C-91.209375 135.031875 -91.10625 136.00125 -91 137 C-87.16291645 139.5580557 -84.42883799 139.66231867 -80 139 C-68.40598339 135.8891344 -68.40598339 135.8891344 -59.73046875 128.09765625 C-58.08838075 123.38214152 -58.03566117 118.8746152 -59 114 C-61.47211071 109.77225314 -64.54278835 106.44604134 -68 103 C-68.84111328 102.06994141 -68.84111328 102.06994141 -69.69921875 101.12109375 C-76.38456537 94.4020678 -88.16797292 91.94827865 -97.4375 91.75 C-100.65222595 91.77111478 -101.94371458 91.97063369 -104.875 93.5 C-109.81265777 95.87007573 -115.72053102 95.8230085 -121.0390625 94.48828125 C-123.33615272 93.91629663 -125.38641149 93.90274135 -127.75 93.9375 C-128.54921875 93.94652344 -129.3484375 93.95554687 -130.171875 93.96484375 C-130.77515625 93.97644531 -131.3784375 93.98804688 -132 94 C-132.20496094 94.62648438 -132.40992188 95.25296875 -132.62109375 95.8984375 C-132.89050781 96.71570313 -133.15992188 97.53296875 -133.4375 98.375 C-133.70433594 99.18710938 -133.97117188 99.99921875 -134.24609375 100.8359375 C-135 103 -135 103 -136 105 C-136.31339189 107.46361641 -136.31339189 107.46361641 -136.375 110.25 C-136.42398438 111.18328125 -136.47296875 112.1165625 -136.5234375 113.078125 C-135.67844109 117.79497061 -132.96387904 120.59579478 -129.18554688 123.29736328 C-126.49092951 124.98585611 -123.73678884 126.55534003 -120.97070312 128.12304688 C-115.11947925 131.57831936 -110.78981306 135.65382777 -107.5625 141.6875 C-107 144 -107 144 -108 148 C-109.65 145.36 -111.3 142.72 -113 140 C-112.95359375 140.969375 -112.9071875 141.93875 -112.859375 142.9375 C-112.62000975 150.35969276 -112.95632974 156.96072219 -115 164.125 C-120.33906873 183.38245253 -114.16988587 202.07602582 -108.37475586 220.55224609 C-106.4834386 226.71634648 -105.36903784 232.55901257 -105 239 C-120.61021251 225.93839361 -132.90051076 209.99184688 -142.1875 191.875 C-145.15386219 186.27187141 -147.94111207 184.01962931 -154 182 C-154.82914485 179.28224743 -155.48188296 176.77428127 -156 174 C-156.17660156 173.13117188 -156.35320312 172.26234375 -156.53515625 171.3671875 C-160.31237662 144.00614586 -152.74677685 115.86693574 -136.5 93.6875 C-133.24912307 89.45750954 -129.91774509 85.61638008 -126 82 C-126.64066406 82.2165625 -127.28132813 82.433125 -127.94140625 82.65625 C-133.05457885 84.30221912 -137.56688431 85.66527947 -143 85 C-144.69140625 83.4765625 -144.69140625 83.4765625 -146 82 C-145.23816406 81.54560547 -145.23816406 81.54560547 -144.4609375 81.08203125 C-137.64806756 76.93562164 -132.21738194 72.33867001 -127.02734375 66.296875 C-111.0969944 48.24861793 -93.25535049 36.35625874 -70 30 C-70.39832031 29.56429687 -70.79664063 29.12859375 -71.20703125 28.6796875 C-74.460079 25.02297689 -77.24678133 21.64087295 -79 17 C-78.6875 14.625 -78.6875 14.625 -78 13 C-77.175 13.598125 -76.35 14.19625 -75.5 14.8125 C-65.2002233 21.60699139 -53.01322289 22.37737873 -41 22 C-46.35443795 16.7819019 -50.77015688 13.10322709 -58 11 C-57.67 10.34 -57.34 9.68 -57 9 C-42.52528696 8.22915729 -32.36519584 11.69771899 -20 19 C-20.28875 18.40832031 -20.5775 17.81664063 -20.875 17.20703125 C-24.56239016 9.35852373 -24.56239016 9.35852373 -24 5 C-23.401875 5.66 -22.80375 6.32 -22.1875 7 C-16.16697674 13.00337077 -9.02744221 18.14579833 -1 21 C-1.32355469 20.43925781 -1.64710938 19.87851563 -1.98046875 19.30078125 C-3.97047476 14.80992479 -3.75129776 9.4536603 -2.32421875 4.79296875 C-1.62317518 3.1616304 -0.8213285 1.57421295 0 0 Z " fill="#563A2A" transform="translate(285,92)"/>
<path d="M0 0 C0.99 0.495 0.99 0.495 2 1 C0.50067938 2.35491884 -0.99950054 3.70888678 -2.5 5.0625 C-3.41652344 5.89136719 -4.33304688 6.72023437 -5.27734375 7.57421875 C-7.50446683 9.55849914 -9.76837244 11.47017893 -12.0625 13.375 C-25.81588341 25.44710808 -35.51257937 42.50849844 -43 59 C-43.47179687 60.03125 -43.94359375 61.0625 -44.4296875 62.125 C-59.01690816 96.91688033 -57.44995355 138.04312244 -43.35546875 172.55859375 C-35.79099052 190.33404177 -25.35923847 205.13319168 -12 219 C-11.35804688 219.70511719 -10.71609375 220.41023437 -10.0546875 221.13671875 C4.58504712 236.75877322 24.86652342 247.41350663 45 254 C46.13566406 254.37769531 47.27132812 254.75539063 48.44140625 255.14453125 C79.8142652 264.8508503 110.24163627 261.92101711 141 252 C140.01 251.34 139.02 250.68 138 250 C138.66 248.68 139.32 247.36 140 246 C139.01 245.67 138.02 245.34 137 245 C137.66 244.01 138.32 243.02 139 242 C139.66 242 140.32 242 141 242 C141 241.34 141 240.68 141 240 C140.319375 240.37511719 139.63875 240.75023437 138.9375 241.13671875 C110.65787847 256.06625299 78.92864188 255.87245451 48.69824219 246.67285156 C15.09865437 235.70536847 -12.71008204 212.35436253 -29.04785156 180.98828125 C-31.17629522 176.71881201 -33.11074625 172.37986148 -35 168 C-35.43441406 167.03835938 -35.86882812 166.07671875 -36.31640625 165.0859375 C-38.45318343 160.15720407 -39.57241049 156.38065863 -39 151 C-38 150 -38 150 -35.75 149.4375 C-33 150 -33 150 -31.8046875 151.36328125 C-30.44753055 153.5338336 -29.21664728 155.74746446 -28 158 C-17.41469267 176.9365297 1.01472983 205.96471354 23 213 C25.7336432 212.70480232 25.7336432 212.70480232 28 212 C29.01104566 203.10279823 24.29825543 195.37251508 20.1875 187.75 C17.85326328 183.1553948 17.20541398 180.12066544 18 175 C19.5625 172.4375 19.5625 172.4375 22 171 C25.50785779 170.80144201 27.81256418 171.11395171 30.68041992 173.25390625 C35.84678426 178.25385658 38.85248486 183.77409896 42 190.1875 C43.04506591 192.24831425 44.09192411 194.30822064 45.140625 196.3671875 C45.63498047 197.34526367 46.12933594 198.32333984 46.63867188 199.33105469 C51.21278762 208.29881533 56.38273361 216.38615735 63 224 C63.51820313 224.62519531 64.03640625 225.25039063 64.5703125 225.89453125 C70.12929846 232.08204578 79.7112116 238.56026008 88 240 C88.33 238.02 88.66 236.04 89 234 C89.57363281 234.144375 90.14726562 234.28875 90.73828125 234.4375 C102.31205494 236.96651883 115.55868803 237.45108698 127.08984375 234.4375 C129 234 129 234 133 234 C133.13277344 233.04738281 133.26554688 232.09476563 133.40234375 231.11328125 C133.66724609 229.23189453 133.66724609 229.23189453 133.9375 227.3125 C134.11152344 226.07113281 134.28554688 224.82976562 134.46484375 223.55078125 C134.77255921 221.50907793 135.11530014 219.47059371 135.5546875 217.453125 C139.37908171 196.38540951 131.03866671 176.15819786 119.46972656 159.09912109 C117.37168561 156.10261676 115.19277271 153.16890709 113.01318359 150.23144531 C102.03357079 135.42173501 94.32856372 120.94965706 96 102 C97.24154665 96.3916341 98.85504687 91.10093341 101.609375 86.046875 C103.19571124 82.57119448 103.36437377 80.05256381 103.4375 76.25 C103.96154619 66.49863063 107.03862112 59.61731746 113 52 C94.91832784 50.04899106 78.76205681 49.2659951 63.0234375 59.828125 C61 61 61 61 58 61 C66.46432174 51.12495797 77.9156422 43.95831274 91.14331055 42.81469727 C93.37069448 42.73295613 95.58384138 42.72312556 97.8125 42.75 C98.60076172 42.75386719 99.38902344 42.75773437 100.20117188 42.76171875 C105.45613245 42.83931456 110.37925666 43.42303015 115.51953125 44.5546875 C119.66765854 45.29939067 123.80217011 45.16390659 128 45 C125.8195445 47.26196786 123.50416874 49.21448169 121.0625 51.1875 C116.04171212 55.53454245 112.44085541 61.37949614 111.796875 68.12890625 C111.56330094 80.255293 115.98397841 90.91517553 124 100 C124.524729 100.45431396 125.04945801 100.90862793 125.59008789 101.37670898 C127.35218159 103.40548145 127.39743696 104.4396839 127.43359375 107.09765625 C127.44463135 107.89502197 127.45566895 108.6923877 127.46704102 109.51391602 C127.45729248 110.35494873 127.44754395 111.19598145 127.4375 112.0625 C127.43355225 112.91706787 127.42960449 113.77163574 127.42553711 114.65209961 C127.27931967 121.08383147 126.20586733 126.34788852 123 132 C121.15130448 135.69739105 121.66779858 139.9560866 122 144 C123.05094485 147.02146644 123.87870513 148.41662362 126.734375 149.90234375 C128.11064405 150.52379857 129.48831582 151.14215392 130.8671875 151.7578125 C134.1366547 153.66200768 136.21718493 156.36293646 138.5546875 159.29296875 C140.87713505 162.03596762 142.06239802 162.0062398 145.75 162.375 C149.64600189 162.31914334 151.4805627 161.25411381 154.296875 158.46875 C157.03953818 156.10351753 160.36135653 154.72946379 163.6328125 153.2109375 C170.62181706 146.68325338 170.94746789 135.08126864 172 126.125 C173.37603933 114.49237124 175.12117054 102.83162243 181.375 92.6875 C181.97183594 91.71683594 182.56867188 90.74617188 183.18359375 89.74609375 C185.63580562 86.03877129 188.21718751 82.4657738 191 79 C191.66 79.33 192.32 79.66 193 80 C192.34 81.32 191.68 82.64 191 84 C191.639375 84.268125 192.27875 84.53625 192.9375 84.8125 C195 86 195 86 196 89 C197.45907525 90.25381197 197.45907525 90.25381197 199.3125 91.4375 C216.62415204 104.06445767 228.08154646 121.72688265 232.375 142.75 C235.55020406 166.74406783 230.80375765 188.18876702 216.015625 207.60546875 C214.2149407 209.74465378 212.42832228 211.55636869 210.3125 213.375 C209.61898438 213.97183594 208.92546875 214.56867188 208.2109375 215.18359375 C205.99781702 217.00179344 203.72958926 218.72038876 201.4375 220.4375 C197.69029298 223.31057296 194.6987736 226.42480029 191.66796875 230.03125 C169.66661789 256.00005758 133.50473832 272.68939217 99.9453125 275.79931641 C81.19038025 277.07721381 62.21286815 276.98919406 44 272 C43.24154785 271.79632813 42.4830957 271.59265625 41.70166016 271.3828125 C16.31375394 264.32365643 -5.30814971 250.28958665 -24 232 C-24.66128906 231.38898438 -25.32257813 230.77796875 -26.00390625 230.1484375 C-48.5316877 208.92737191 -60.95328469 177.86241099 -66 148 C-66.17200928 147.08323486 -66.34401855 146.16646973 -66.52124023 145.22192383 C-71.91857524 108.89931796 -62.20134441 70.01393984 -41.0625 40.125 C-39.73271364 38.39762095 -38.37684503 36.69010885 -37 35 C-36.5757373 34.47712402 -36.15147461 33.95424805 -35.71435547 33.41552734 C-25.06869911 20.36467118 -13.47069954 10.03633802 0 0 Z " fill="#FDFDF0" transform="translate(167,132)"/>
<path d="M0 0 C0.99 0.495 0.99 0.495 2 1 C0.50067938 2.35491884 -0.99950054 3.70888678 -2.5 5.0625 C-3.41652344 5.89136719 -4.33304688 6.72023437 -5.27734375 7.57421875 C-7.50446683 9.55849914 -9.76837244 11.47017893 -12.0625 13.375 C-25.81588341 25.44710808 -35.51257937 42.50849844 -43 59 C-43.47179687 60.03125 -43.94359375 61.0625 -44.4296875 62.125 C-59.01690816 96.91688033 -57.44995355 138.04312244 -43.35546875 172.55859375 C-35.79099052 190.33404177 -25.35923847 205.13319168 -12 219 C-11.35804688 219.70511719 -10.71609375 220.41023437 -10.0546875 221.13671875 C4.58504712 236.75877322 24.86652342 247.41350663 45 254 C46.13566406 254.37769531 47.27132812 254.75539063 48.44140625 255.14453125 C85.39488794 266.57741608 124.88249977 261.78193902 159 244 C168.7722112 238.61522194 177.57143755 232.31483723 186 225 C186.73863281 224.41734375 187.47726562 223.8346875 188.23828125 223.234375 C203.02168424 211.31856242 210.36827161 186.24275977 213 168 C213.21024302 163.87640997 213.18509413 159.75347825 213.1875 155.625 C213.19974609 154.52671875 213.21199219 153.4284375 213.22460938 152.296875 C213.23563739 146.1653 212.80592141 140.86746008 211 135 C211.02618408 135.83958252 211.05236816 136.67916504 211.0793457 137.54418945 C211.94191448 169.46796908 206.7168929 195.86330129 184 220 C183.34 219.67 182.68 219.34 182 219 C182.51949219 218.1028125 183.03898438 217.205625 183.57421875 216.28125 C188.74878135 207.1164087 192.27066614 198.14349189 195 188 C195.18546387 187.3385498 195.37092773 186.67709961 195.56201172 185.99560547 C203.80961757 156.49870945 204.83529639 121.84043873 193.890625 92.90625 C193 90 193 90 194 87 C213.31922187 101.53215805 227.43554144 118.56368569 232.375 142.75 C235.55020406 166.74406783 230.80375765 188.18876702 216.015625 207.60546875 C214.2149407 209.74465378 212.42832228 211.55636869 210.3125 213.375 C209.61898438 213.97183594 208.92546875 214.56867188 208.2109375 215.18359375 C205.99781702 217.00179344 203.72958926 218.72038876 201.4375 220.4375 C197.69029298 223.31057296 194.6987736 226.42480029 191.66796875 230.03125 C169.66661789 256.00005758 133.50473832 272.68939217 99.9453125 275.79931641 C81.19038025 277.07721381 62.21286815 276.98919406 44 272 C43.24154785 271.79632813 42.4830957 271.59265625 41.70166016 271.3828125 C16.31375394 264.32365643 -5.30814971 250.28958665 -24 232 C-24.66128906 231.38898438 -25.32257813 230.77796875 -26.00390625 230.1484375 C-48.5316877 208.92737191 -60.95328469 177.86241099 -66 148 C-66.17200928 147.08323486 -66.34401855 146.16646973 -66.52124023 145.22192383 C-71.91857524 108.89931796 -62.20134441 70.01393984 -41.0625 40.125 C-39.73271364 38.39762095 -38.37684503 36.69010885 -37 35 C-36.5757373 34.47712402 -36.15147461 33.95424805 -35.71435547 33.41552734 C-25.06869911 20.36467118 -13.47069954 10.03633802 0 0 Z " fill="#90B441" transform="translate(167,132)"/>
<path d="M0 0 C2.75 0.5625 2.75 0.5625 3.9453125 1.92578125 C5.30246945 4.0963336 6.53335272 6.30996446 7.75 8.5625 C18.33530733 27.4990297 36.76472983 56.52721354 58.75 63.5625 C61.4836432 63.26730232 61.4836432 63.26730232 63.75 62.5625 C64.76104566 53.66529823 60.04825543 45.93501508 55.9375 38.3125 C53.60326328 33.7178948 52.95541398 30.68316544 53.75 25.5625 C55.3125 23 55.3125 23 57.75 21.5625 C61.25785779 21.36394201 63.56256418 21.67645171 66.43041992 23.81640625 C71.59678426 28.81635658 74.60248486 34.33659896 77.75 40.75 C78.79506591 42.81081425 79.84192411 44.87072064 80.890625 46.9296875 C81.6321582 48.39680176 81.6321582 48.39680176 82.38867188 49.89355469 C86.96278762 58.86131533 92.13273361 66.94865735 98.75 74.5625 C99.26820313 75.18769531 99.78640625 75.81289063 100.3203125 76.45703125 C108.64312295 85.72086298 122.90505055 92.82912038 135.25390625 93.74902344 C146.20605663 94.22029307 157.00868434 93.84657287 167.75 91.5625 C168.6678125 91.37171875 169.585625 91.1809375 170.53125 90.984375 C172.60970497 90.53532609 174.68103936 90.05343981 176.75 89.5625 C161.32248631 102.41876141 135.96811356 105.11921896 116.75 103.5625 C79.36505848 99.57360301 46.04650707 83.76338863 21.76196289 54.74633789 C12.88883128 43.7388975 6.32934683 31.49711308 0.75 18.5625 C0.09837891 17.12003906 0.09837891 17.12003906 -0.56640625 15.6484375 C-2.70318343 10.71970407 -3.82241049 6.94315863 -3.25 1.5625 C-2.25 0.5625 -2.25 0.5625 0 0 Z " fill="#90B441" transform="translate(131.25,281.4375)"/>
<path d="M0 0 C0.78826172 0.00386719 1.57652344 0.00773438 2.38867188 0.01171875 C7.64363245 0.08931456 12.56675666 0.67303015 17.70703125 1.8046875 C21.85515854 2.54939067 25.98967011 2.41390659 30.1875 2.25 C28.0070445 4.51196786 25.69166874 6.46448169 23.25 8.4375 C18.22921212 12.78454245 14.62835541 18.62949614 13.984375 25.37890625 C13.75080094 37.505293 18.17147841 48.16517553 26.1875 57.25 C26.712229 57.70431396 27.23695801 58.15862793 27.77758789 58.62670898 C29.53968159 60.65548145 29.58493696 61.6896839 29.62109375 64.34765625 C29.63213135 65.14502197 29.64316895 65.9423877 29.65454102 66.76391602 C29.64479248 67.60494873 29.63504395 68.44598145 29.625 69.3125 C29.62105225 70.16706787 29.61710449 71.02163574 29.61303711 71.90209961 C29.46681967 78.33383147 28.39336733 83.59788852 25.1875 89.25 C23.95745019 91.71009963 24.05435973 93.38172806 24.0625 96.125 C24.05992187 96.98867188 24.05734375 97.85234375 24.0546875 98.7421875 C24.17726079 101.05665971 24.53783555 103.03289116 25.1875 105.25 C24.5275 105.25 23.8675 105.25 23.1875 105.25 C22.6925 106.735 22.6925 106.735 22.1875 108.25 C21.1975 108.25 20.2075 108.25 19.1875 108.25 C18.5275 108.91 17.8675 109.57 17.1875 110.25 C5.66481174 94.27815987 -3.61388904 79.67297695 -1.8125 59.25 C-0.57095335 53.6416341 1.04254687 48.35093341 3.796875 43.296875 C5.38321124 39.82119448 5.55187377 37.30256381 5.625 33.5 C6.14904619 23.74863063 9.22612112 16.86731746 15.1875 9.25 C-2.89417216 7.29899106 -19.05044319 6.5159951 -34.7890625 17.078125 C-36.8125 18.25 -36.8125 18.25 -39.8125 18.25 C-29.45066779 6.16119575 -15.92417432 -0.19202277 0 0 Z " fill="#FAF9ED" transform="translate(264.8125,174.75)"/>
<path d="M0 0 C3.88973201 1.29657734 4.18261792 2.36523583 6 6 C10.20852553 15.05121243 10.49482442 25.32223418 7.5 34.8125 C5.17222108 40.47648192 1.46762917 44.85951988 -3 49 C-3.33 49 -3.66 49 -4 49 C-4 41.41 -4 33.82 -4 26 C-4.99 33.59 -5.98 41.18 -7 49 C-13.11332275 40.84890299 -15.25996192 32.10622088 -14 22 C-12.1432046 13.02343945 -7.42368384 7.33247535 -1 1 C-0.67 0.67 -0.34 0.34 0 0 Z " fill="#90B441" transform="translate(336,318)"/>
<path d="M0 0 C7.22492715 10.83739072 5.34698682 30.44977831 3.34765625 42.73828125 C2.50532302 46.915212 1.32511853 50.95327021 0 55 C-0.24669434 55.77037598 -0.49338867 56.54075195 -0.74755859 57.33447266 C-8.41957652 80.82149131 -20.21611083 95.74086471 -41 109 C-43.91015625 110.27734375 -43.91015625 110.27734375 -46 111 C-46 110.34 -46 109.68 -46 109 C-45.34 109 -44.68 109 -44 109 C-44 108.01 -44 107.02 -44 106 C-45.65 106 -47.3 106 -49 106 C-48.55382074 102.08184869 -48.0909586 98.16584436 -47.625 94.25 C-47.43550781 92.58324219 -47.43550781 92.58324219 -47.2421875 90.8828125 C-47.11328125 89.81289063 -46.984375 88.74296875 -46.8515625 87.640625 C-46.67874756 86.16384277 -46.67874756 86.16384277 -46.50244141 84.65722656 C-46 82 -46 82 -44 78 C-44 86.58 -44 95.16 -44 104 C-35.11899536 93.85028041 -32.34483039 87.5559365 -32.7265625 74.1953125 C-33.04229793 70.50571844 -33.68555501 67.4504181 -35 64 C-32 66 -32 66 -31.19921875 68.87109375 C-30.07187173 76.72810006 -29.95849008 83.305078 -32 91 C-24.44013744 89.09917249 -21.47423697 84.01679882 -17 78 C-16.45085937 77.29746094 -15.90171875 76.59492188 -15.3359375 75.87109375 C-11.93672458 71.2267146 -9.61305404 66.21060863 -7.375 60.9375 C-7.09769043 60.29603027 -6.82038086 59.65456055 -6.53466797 58.99365234 C-0.85872788 45.01408442 0.57055576 31.93910786 0.25 17 C0.22986531 15.33856367 0.21162709 13.67710324 0.1953125 12.015625 C0.15195724 8.00980293 0.08333444 4.0051815 0 0 Z " fill="#F8FCE4" transform="translate(377,262)"/>
<path d="M0 0 C3.0625 2.1875 3.0625 2.1875 5 4 C2.49755229 9.85168327 -2.9504404 13.29454294 -8.625 15.875 C-15.92879312 18.28554042 -24.94243965 18.46628018 -31.875 15 C-32.90625 14.34 -33.9375 13.68 -35 13 C-35 12.34 -35 11.68 -35 11 C-30.38 9.68 -25.76 8.36 -21 7 C-26.28 7.66 -31.56 8.32 -37 9 C-26.27906226 -1.72093774 -14.57262591 -6.85601888 0 0 Z " fill="#91B443" transform="translate(379,372)"/>
<path d="M0 0 C7.57750854 9.68603265 12.47316739 22.68528778 13 35 C13.07734375 36.50240234 13.07734375 36.50240234 13.15625 38.03515625 C13.40860041 47.36160666 11.97649187 55.94107891 10 65 C9.01 64.34 8.02 63.68 7 63 C6.7421875 61.1875 6.7421875 61.1875 6.875 59 C7.30779038 42.93583936 2.06448496 29.24185598 -5.328125 15.23046875 C-7 12 -7 12 -8 9 C-7.25943359 8.52820313 -7.25943359 8.52820313 -6.50390625 8.046875 C-5.86324219 7.61890625 -5.22257812 7.1909375 -4.5625 6.75 C-3.92441406 6.33234375 -3.28632813 5.9146875 -2.62890625 5.484375 C-0.70097943 3.72751123 -0.38520564 2.53910197 0 0 Z " fill="#593F30" transform="translate(291,298)"/>
<path d="M0 0 C0.66 0.33 1.32 0.66 2 1 C0.50067938 2.35491884 -0.99950054 3.70888678 -2.5 5.0625 C-3.41652344 5.89136719 -4.33304688 6.72023437 -5.27734375 7.57421875 C-7.50446683 9.55849914 -9.76837244 11.47017893 -12.0625 13.375 C-31.95171122 30.83286476 -45.36643124 58.58023854 -51 84 C-51.33 84 -51.66 84 -52 84 C-52 81.03 -52 78.06 -52 75 C-51.34 75 -50.68 75 -50 75 C-50.0825 74.195625 -50.165 73.39125 -50.25 72.5625 C-49.91706018 67.81810753 -48.09835476 64.21544483 -46 60 C-46.99 60 -47.98 60 -49 60 C-50.32 62.31 -51.64 64.62 -53 67 C-53.66 67 -54.32 67 -55 67 C-47.04199874 39.70924568 -22.61853852 15.66235356 0 0 Z " fill="#95B44E" transform="translate(167,132)"/>
<path d="M0 0 C0.66 0.33 1.32 0.66 2 1 C1.525625 2.0725 1.05125 3.145 0.5625 4.25 C-0.32182238 6.29551204 -1.03443873 8.14158146 -1.5625 10.3125 C-2 12 -2 12 -4 14 C-2.989375 14.12375 -1.97875 14.2475 -0.9375 14.375 C2.87937612 14.98085335 6.31500112 15.87193912 10 17 C10 17.66 10 18.32 10 19 C8.576875 18.7525 8.576875 18.7525 7.125 18.5 C5.75153912 18.32109227 4.37628876 18.15566641 3 18 C2.25105469 17.90847656 1.50210937 17.81695312 0.73046875 17.72265625 C-8.95141687 17.08136819 -16.77029109 21.9423204 -24 28 C-22.7315625 27.7834375 -22.7315625 27.7834375 -21.4375 27.5625 C-15.21007814 26.54346733 -9.30955415 25.7525665 -3 26 C-3 26.33 -3 26.66 -3 27 C-9.6 28.32 -16.2 29.64 -23 31 C-18.38767753 35.61232247 -14.74192314 36.29090059 -8.3125 36.3125 C-2.08672486 36.24033612 3.20777741 35.24215068 9 33 C9 33.66 9 34.32 9 35 C3.4765352 37.77642247 -0.85545569 38.46778674 -7 38.375 C-8.15242188 38.39240234 -8.15242188 38.39240234 -9.328125 38.41015625 C-14.60370471 38.38324003 -18.33374133 37.49701454 -23 35 C-26 31.03225806 -26 31.03225806 -26 28 C-27.32 28.33 -28.64 28.66 -30 29 C-27.13131316 26.02457133 -24.11639505 23.43598559 -20.875 20.875 C-13.18558447 14.63505986 -6.14084057 7.77839806 0 0 Z " fill="#FAFDE9" transform="translate(367,352)"/>
<path d="M0 0 C7.22492715 10.83739072 5.34698682 30.44977831 3.34765625 42.73828125 C1.17098435 53.50002508 -3.01625241 63.80563468 -7 74 C-7.66 73.34 -8.32 72.68 -9 72 C-10.98 72.99 -10.98 72.99 -13 74 C-13 74.66 -13 75.32 -13 76 C-13.66 75.67 -14.32 75.34 -15 75 C-14.69707031 74.47792969 -14.39414062 73.95585937 -14.08203125 73.41796875 C-0.20913672 49.0443602 0.721984 27.3265389 0 0 Z " fill="#F5FBDD" transform="translate(377,262)"/>
<path d="M0 0 C1 3 1 3 1 5 C1.99 5.33 2.98 5.66 4 6 C2.35 6.33 0.7 6.66 -1 7 C-1.20496094 7.62648437 -1.40992188 8.25296875 -1.62109375 8.8984375 C-1.89050781 9.71570313 -2.15992188 10.53296875 -2.4375 11.375 C-2.70433594 12.18710938 -2.97117188 12.99921875 -3.24609375 13.8359375 C-4 16 -4 16 -5 18 C-5.22467831 19.53668865 -5.40796805 21.07968054 -5.5625 22.625 C-5.64628906 23.44226563 -5.73007813 24.25953125 -5.81640625 25.1015625 C-5.87699219 25.72804687 -5.93757812 26.35453125 -6 27 C-6.66 26.01 -7.32 25.02 -8 24 C-8.391875 24.598125 -8.78375 25.19625 -9.1875 25.8125 C-11.23066561 28.27838953 -13.20894373 29.46491905 -16 31 C-16.99 31.66 -17.98 32.32 -19 33 C-15.44513799 20.95296762 -8.97400362 8.97400362 0 0 Z " fill="#5C4436" transform="translate(154,179)"/>
<path d="M0 0 C0.33 0 0.66 0 1 0 C3.09069302 13.06683136 1.79243824 25.20132473 -1 38 C-1.99 37.34 -2.98 36.68 -4 36 C-4.2578125 34.1875 -4.2578125 34.1875 -4.125 32 C-3.86021748 23.73878522 -5.06103509 16.01438828 -7 8 C-6.06414062 7.86271484 -6.06414062 7.86271484 -5.109375 7.72265625 C-2.53803663 7.11915178 -2.53803663 7.11915178 -1.25 3.4375 C-0.8375 2.303125 -0.425 1.16875 0 0 Z " fill="#5A4134" transform="translate(302,325)"/>
<path d="M0 0 C2 2 2 2 2.375 5.1875 C1.57581799 13.31251715 -2.97715543 17.22022876 -8.9765625 22.203125 C-11.74364732 24.66038179 -12.92555905 26.2853669 -13.3125 30 C-12.96558754 33.33035959 -12.47590838 33.93674302 -10 36 C-10 36.66 -10 37.32 -10 38 C-7.03 38.33 -4.06 38.66 -1 39 C-1 39.33 -1 39.66 -1 40 C-6.30864082 40.34005528 -10.67798667 40.56983333 -15.625 38.4375 C-18 36 -18 36 -19.25 32.75 C-18.69009353 24.35140296 -10.94193114 18.78717084 -5.171875 13.296875 C-1.24195883 9.14077661 -0.65066995 5.63913955 0 0 Z " fill="#635144" transform="translate(207,196)"/>
<path d="M0 0 C8.91208829 -0.51007183 15.83073644 0.3328356 24 4 C24.26600431 8.87951664 22.91856146 11.07818304 20 15 C19.38125 14.29875 18.7625 13.5975 18.125 12.875 C13.12550558 7.86122131 6.57141297 4.47601453 0 2 C0 1.34 0 0.68 0 0 Z " fill="#563C2D" transform="translate(303,105)"/>
<path d="M0 0 C3.88973201 1.29657734 4.18261792 2.36523583 6 6 C10.35329073 15.36255677 10.49979503 25.71008561 7 35.375 C6.35620858 36.92635849 5.69832549 38.47241299 5 40 C4.31292445 37.50935112 4 35.62113708 4 33 C4.66 33 5.32 33 6 33 C6.32971788 20.85475608 6.32971788 20.85475608 4 9 C3.34 8.67 2.68 8.34 2 8 C2 7.34 2 6.68 2 6 C1.34 6.66 0.68 7.32 0 8 C-2 10 -2 10 -3.875 10.8125 C-6.6436003 12.35965899 -8.05176626 14.53223726 -10 17 C-10.66 17 -11.32 17 -12 17 C-10.7026033 12.15780359 -8.86854282 9.31680533 -5.4375 5.6875 C-4.63183594 4.82511719 -3.82617188 3.96273438 -2.99609375 3.07421875 C-1 1 -1 1 0 0 Z " fill="#9BB658" transform="translate(336,318)"/>
<path d="M0 0 C0.33 0 0.66 0 1 0 C1 8.58 1 17.16 1 26 C3.97 22.535 3.97 22.535 7 19 C7.433125 19.61875 7.86625 20.2375 8.3125 20.875 C9.99740483 23.2197245 9.99740483 23.2197245 13 25 C11.04532248 26.33898399 9.0866421 27.67129047 7.125 29 C6.03445313 29.7425 4.94390625 30.485 3.8203125 31.25 C1 33 1 33 -1 33 C-1 32.34 -1 31.68 -1 31 C-0.34 31 0.32 31 1 31 C1 30.01 1 29.02 1 28 C-0.65 28 -2.3 28 -4 28 C-3.52488016 24.08283132 -3.04420382 20.16636404 -2.5625 16.25 C-2.42779297 15.13882812 -2.29308594 14.02765625 -2.15429688 12.8828125 C-2.02216797 11.81289063 -1.89003906 10.74296875 -1.75390625 9.640625 C-1.63345947 8.65610352 -1.5130127 7.67158203 -1.38891602 6.65722656 C-1.05532586 4.37800798 -0.60987459 2.21856266 0 0 Z " fill="#F7FCE0" transform="translate(332,340)"/>
<path d="M0 0 C-0.66 0.66 -1.32 1.32 -2 2 C-3.0209375 1.505 -3.0209375 1.505 -4.0625 1 C-10.52355764 -1.19950898 -16.59536224 0.37342533 -23 2 C-23 2.66 -23 3.32 -23 4 C-19.04 4.33 -15.08 4.66 -11 5 C-14.85773506 6.92886753 -16.32617133 7.06232178 -20.4296875 6.9375 C-25.99421381 7.07280763 -31.50934872 8.13630205 -37 9 C-26.08489187 -2.31305478 -14.87971473 -6.03814511 0 0 Z " fill="#98B553" transform="translate(379,372)"/>
<path d="M0 0 C0.66 0.33 1.32 0.66 2 1 C0.0656962 4.57846202 -1.69194522 6.66932504 -5 9 C-3.7315625 8.7834375 -3.7315625 8.7834375 -2.4375 8.5625 C3.78992186 7.54346733 9.69044585 6.7525665 16 7 C16 7.33 16 7.66 16 8 C9.4 9.32 2.8 10.64 -4 12 C0.61232247 16.61232247 4.25807686 17.29090059 10.6875 17.3125 C16.91327514 17.24033612 22.20777741 16.24215068 28 14 C28 14.66 28 15.32 28 16 C22.4765352 18.77642247 18.14454431 19.46778674 12 19.375 C10.84757812 19.39240234 10.84757812 19.39240234 9.671875 19.41015625 C4.39629529 19.38324003 0.66625867 18.49701454 -4 16 C-7 12.03225806 -7 12.03225806 -7 9 C-8.32 9.33 -9.64 9.66 -11 10 C-7.54563567 6.40746109 -3.80635497 3.20760251 0 0 Z " fill="#ECF8CB" transform="translate(348,371)"/>
<path d="M0 0 C4.9221034 7.3831551 4.3120586 16.99324115 4.25 25.5625 C4.25773437 26.63435547 4.26546875 27.70621094 4.2734375 28.81054688 C4.2578396 35.18618945 3.63046485 40.83399603 2 47 C1.67 45.68 1.34 44.36 1 43 C0.34 44.32 -0.32 45.64 -1 47 C-2.27551229 44.44897543 -1.79792705 43.63466929 -1.07470703 40.92211914 C0.02731843 36.28345908 0.2614879 31.99648667 0.1953125 27.24609375 C0.1924826 26.45977066 0.18965271 25.67344757 0.18673706 24.86329651 C0.17567289 22.38786641 0.15059591 19.91281801 0.125 17.4375 C0.11495234 15.7441459 0.10582965 14.05078605 0.09765625 12.35742188 C0.07577898 8.23813747 0.04134718 4.11913311 0 0 Z " fill="#E6F2BF" transform="translate(377,262)"/>
<path d="M0 0 C0.33 0 0.66 0 1 0 C1.6414941 35.30520339 1.6414941 35.30520339 -2 52 C-2.18755859 52.86608887 -2.37511719 53.73217773 -2.56835938 54.62451172 C-4.6192179 63.85171579 -6.90960782 72.44643651 -11 81 C-12 79 -12 79 -11.328125 76.453125 C-10.97234375 75.39609375 -10.6165625 74.3390625 -10.25 73.25 C-8.2672515 67.10279357 -6.86175931 61.0361869 -5.61328125 54.703125 C-5 52 -5 52 -4 51 C-3.79103683 49.19188816 -3.63219639 47.37783968 -3.5 45.5625 C-3.10992366 40.21984733 -3.10992366 40.21984733 -2 38 C-1.77287781 35.15994614 -1.59856352 32.33693034 -1.46484375 29.4921875 C-1.42186661 28.65156769 -1.37888947 27.81094788 -1.33460999 26.94485474 C-1.19805927 24.25509451 -1.06771128 21.56507385 -0.9375 18.875 C-0.84611092 17.05336491 -0.75431916 15.23174998 -0.66210938 13.41015625 C-0.4367299 8.94032478 -0.21691353 4.47024998 0 0 Z " fill="#F3FAD3" transform="translate(368,256)"/>
<path d="M0 0 C0.33 0 0.66 0 1 0 C1.03867187 0.97839844 1.03867187 0.97839844 1.078125 1.9765625 C1.60003865 10.01877732 4.05436129 14.47904977 10 20 C4.58461538 20.36923077 4.58461538 20.36923077 1.625 18.5 C0.820625 17.7575 0.820625 17.7575 0 17 C1.39759905 20.54518884 1.39759905 20.54518884 3 24 C-1.44044513 22.64319732 -3.45164515 20.86646942 -6 17 C-7.25 13.6875 -7.25 13.6875 -8 11 C-6.68 11 -5.36 11 -4 11 C-3.34 10.34 -2.68 9.68 -2 9 C-1.34 9.33 -0.68 9.66 0 10 C0 6.7 0 3.4 0 0 Z " fill="#5D4839" transform="translate(373,166)"/>
<path d="M0 0 C0.99 0.33 1.98 0.66 3 1 C2.01 1.33 1.02 1.66 0 2 C0 1.34 0 0.68 0 0 Z M-3 1 C-2.67 1.66 -2.34 2.32 -2 3 C-2.66 2.67 -3.32 2.34 -4 2 C-3.67 1.67 -3.34 1.34 -3 1 Z M-1 2 C-0.34 2.66 0.32 3.32 1 4 C0.67 4.66 0.34 5.32 0 6 C0.763125 5.773125 1.52625 5.54625 2.3125 5.3125 C3.199375 5.209375 4.08625 5.10625 5 5 C6.66796875 6.48046875 6.66796875 6.48046875 8 8 C-6.40336921 12.85166121 -6.40336921 12.85166121 -12 12 C-13.6796875 10.47265625 -13.6796875 10.47265625 -15 9 C-10.46330032 5.98320986 -6.31027254 3.46032495 -1 2 Z " fill="#583E2E" transform="translate(154,165)"/>
<path d="M0 0 C1.53394043 2.30091065 2.74228627 4.40777165 3.9375 6.875 C5.48433459 10.01501629 7.14317368 13.02907789 9 16 C8.34 16.33 7.68 16.66 7 17 C7 16.34 7 15.68 7 15 C3.18586998 16.1678266 3.18586998 16.1678266 0.6875 19.125 C0.460625 19.74375 0.23375 20.3625 0 21 C-2 20 -2 20 -3 17 C-3.58677182 10.54551003 -2.99801348 5.74619251 0 0 Z " fill="#583F2E" transform="translate(285,92)"/>
<path d="M0 0 C-6.68114438 3.68222162 -13.30065763 6.63797175 -20.5625 8.9375 C-21.59793945 9.27237427 -21.59793945 9.27237427 -22.65429688 9.61401367 C-27.62266473 11.12577842 -27.62266473 11.12577842 -31 10 C-29.35 9.01 -27.7 8.02 -26 7 C-29.3 6.34 -32.6 5.68 -36 5 C-36 4.67 -36 4.34 -36 4 C-35.14003418 3.93268677 -35.14003418 3.93268677 -34.26269531 3.86401367 C-19.53988227 2.73519277 -19.53988227 2.73519277 -5.1796875 -0.51171875 C-3 -1 -3 -1 0 0 Z " fill="#9DB75B" transform="translate(308,372)"/>
<path d="M0 0 C1.32 1.32 2.64 2.64 4 4 C4.66 2.68 5.32 1.36 6 0 C6.33 0.99 6.66 1.98 7 3 C5.56049095 5.38222287 4.10154954 7.53378593 2.4375 9.75 C1.97875488 10.37600098 1.52000977 11.00200195 1.04736328 11.64697266 C-2.121046 15.9328568 -5.42268729 20.04612805 -9 24 C-9.66 23.67 -10.32 23.34 -11 23 C-10.45730469 22.01 -9.91460937 21.02 -9.35546875 20 C-4.05951278 10.28040288 -4.05951278 10.28040288 0 0 Z " fill="#97B44F" transform="translate(360,328)"/>
<path d="M0 0 C1.093125 0.28875 2.18625 0.5775 3.3125 0.875 C3.6425 1.535 3.9725 2.195 4.3125 2.875 C1.3425 2.545 -1.6275 2.215 -4.6875 1.875 C-4.0275 4.515 -3.3675 7.155 -2.6875 9.875 C-2.0275 9.545 -1.3675 9.215 -0.6875 8.875 C-0.914375 9.865 -1.14125 10.855 -1.375 11.875 C-1.96275405 15.79071278 -0.99137817 18.43013821 0.62109375 21.98046875 C1.3125 23.875 1.3125 23.875 1.3125 27.875 C-3.21308988 22.1670488 -7.96243514 14.82438016 -8.3125 7.375 C-7.6875 3.875 -7.6875 3.875 -6.125 1.3125 C-3.6875 -0.125 -3.6875 -0.125 0 0 Z " fill="#91B341" transform="translate(192.6875,303.125)"/>
<path d="M0 0 C0.66 0.33 1.32 0.66 2 1 C0.50067938 2.35491884 -0.99950054 3.70888678 -2.5 5.0625 C-3.87478516 6.30580078 -3.87478516 6.30580078 -5.27734375 7.57421875 C-7.50446683 9.55849914 -9.76837244 11.47017893 -12.0625 13.375 C-17.0280329 17.67033828 -20.97119895 22.84276162 -25 28 C-25.33 27.01 -25.66 26.02 -26 25 C-26.66 24.67 -27.32 24.34 -28 24 C-19.43614447 14.90337004 -9.99038086 7.45587537 0 0 Z " fill="#9AB357" transform="translate(167,132)"/>
<path d="M0 0 C0.33 0.99 0.66 1.98 1 3 C-0.79036458 3.9765625 -2.58072917 4.953125 -4.37109375 5.9296875 C-6.16618315 6.91410024 -6.16618315 6.91410024 -7 9 C-7.99 9 -8.98 9 -10 9 C-10 9.99 -10 10.98 -10 12 C-8.35 12 -6.7 12 -5 12 C-5 11.34 -5 10.68 -5 10 C-3.35 9.67 -1.7 9.34 0 9 C0.33 8.01 0.66 7.02 1 6 C1.99 6.33 2.98 6.66 4 7 C2.25500253 8.63067005 0.50441212 10.25451247 -1.25 11.875 C-1.74113281 12.33519531 -2.23226563 12.79539062 -2.73828125 13.26953125 C-5.33862024 15.66184312 -7.72075115 17.64145405 -11 19 C-11.12375 17.8553125 -11.12375 17.8553125 -11.25 16.6875 C-12.15667629 13.43857664 -13.28855764 12.84920369 -16 11 C-15.26394531 10.54109375 -14.52789062 10.0821875 -13.76953125 9.609375 C-12.79371094 8.99578125 -11.81789063 8.3821875 -10.8125 7.75 C-9.84957031 7.14671875 -8.88664062 6.5434375 -7.89453125 5.921875 C-5.12594673 4.08362455 -2.56042049 2.11574051 0 0 Z " fill="#99B556" transform="translate(350,360)"/>
<path d="M0 0 C0.33 0 0.66 0 1 0 C1.19592461 3.31205884 1.38032746 6.62465854 1.5625 9.9375 C1.61857422 10.88302734 1.67464844 11.82855469 1.73242188 12.80273438 C1.78076172 13.70185547 1.82910156 14.60097656 1.87890625 15.52734375 C1.9260376 16.35999756 1.97316895 17.19265137 2.02172852 18.05053711 C2 20 2 20 1 21 C0.78936893 23.50416935 0.62427923 25.99140081 0.5 28.5 C0.13513514 35.86486486 0.13513514 35.86486486 -1 37 C-1.56274765 39.68544346 -2.08061023 42.36253387 -2.5625 45.0625 C-2.70107422 45.82111328 -2.83964844 46.57972656 -2.98242188 47.36132812 C-3.32511827 49.24024975 -3.6630073 51.12004701 -4 53 C-4.66 53 -5.32 53 -6 53 C-6.33 54.32 -6.66 55.64 -7 57 C-8.71620335 53.5675933 -6.7077997 49.91128164 -5.6875 46.375 C-1.48759169 31.06031375 -0.61536415 15.80514225 0 0 Z " fill="#9FB862" transform="translate(369,268)"/>
<path d="M0 0 C0.66 0 1.32 0 2 0 C1.01 8.58 0.02 17.16 -1 26 C-3.48794878 22.68273496 -4.52821942 21.00386091 -5.6875 17.25 C-5.93886719 16.45078125 -6.19023437 15.6515625 -6.44921875 14.828125 C-6.63097656 14.22484375 -6.81273437 13.6215625 -7 13 C-6.38125 12.690625 -5.7625 12.38125 -5.125 12.0625 C-2.27378814 9.29514731 -2.05775791 6.79153633 -1.39453125 2.9609375 C-1 1 -1 1 0 0 Z " fill="#95B24E" transform="translate(330,341)"/>
<path d="M0 0 C0.33 0 0.66 0 1 0 C2.17402193 7.33763707 2.09377123 14.58165418 2 22 C1.67 22 1.34 22 1 22 C0.89042969 21.36191406 0.78085937 20.72382813 0.66796875 20.06640625 C0.50941406 19.24011719 0.35085938 18.41382813 0.1875 17.5625 C-0.03873047 16.32693359 -0.03873047 16.32693359 -0.26953125 15.06640625 C-0.51058594 14.38449219 -0.75164062 13.70257813 -1 13 C-1.99 12.67 -2.98 12.34 -4 12 C-4.33 13.32 -4.66 14.64 -5 16 C-5.66 13.69 -6.32 11.38 -7 9 C-6.401875 8.814375 -5.80375 8.62875 -5.1875 8.4375 C-1.90018201 6.27726247 -1.35145313 3.64892345 0 0 Z " fill="#6C5547" transform="translate(302,325)"/>
<path d="M0 0 C3.96 1.98 7.92 3.96 12 6 C10.02 6.99 10.02 6.99 8 8 C8 9.32 8 10.64 8 12 C8.99 12.66 9.98 13.32 11 14 C11 14.66 11 15.32 11 16 C8.27060596 15.63884374 7.20179591 15.22448023 5.33203125 13.14453125 C4.83058594 12.37496094 4.32914063 11.60539062 3.8125 10.8125 C3.30332031 10.05582031 2.79414063 9.29914063 2.26953125 8.51953125 C1 6 1 6 0 0 Z " fill="#5A4637" transform="translate(206,105)"/>
<path d="M0 0 C0 0.99 0 1.98 0 3 C-0.66 3.66 -1.32 4.32 -2 5 C-1.030625 4.67 -0.06125 4.34 0.9375 4 C7.89729914 2.03157196 14.23323904 2.6964218 21 5 C21 5.66 21 6.32 21 7 C20.05125 6.835 19.1025 6.67 18.125 6.5 C9.2533805 5.3242432 3.32385775 5.77201206 -4.75 10.00390625 C-5.4925 10.33261719 -6.235 10.66132813 -7 11 C-7.66 10.67 -8.32 10.34 -9 10 C-6.03 6.7 -3.06 3.4 0 0 Z " fill="#F4FCD8" transform="translate(356,364)"/>
<path d="M0 0 C0.66 0 1.32 0 2 0 C1.67 1.98 1.34 3.96 1 6 C0.34 6 -0.32 6 -1 6 C-1.6496875 7.2065625 -1.6496875 7.2065625 -2.3125 8.4375 C-4 11 -4 11 -6.6875 11.8125 C-7.450625 11.874375 -8.21375 11.93625 -9 12 C-9 12.66 -9 13.32 -9 14 C-10.65 14 -12.3 14 -14 14 C-14 13.01 -14 12.02 -14 11 C-13.01 11 -12.02 11 -11 11 C-10.67 10.01 -10.34 9.02 -10 8 C-5.66666667 5 -5.66666667 5 -3 5 C-3 4.01 -3 3.02 -3 2 C-2.01 1.67 -1.02 1.34 0 1 C0 0.67 0 0.34 0 0 Z " fill="#8EB33B" transform="translate(354,358)"/>
<path d="M0 0 C0.33 0.66 0.66 1.32 1 2 C0.328125 3.83984375 0.328125 3.83984375 -0.75 5.9375 C-1.26820313 6.97197266 -1.26820313 6.97197266 -1.796875 8.02734375 C-3.00394966 10.00647591 -4.29707383 11.43898435 -6 13 C-6.33 12.01 -6.66 11.02 -7 10 C-7.804375 10.94875 -8.60875 11.8975 -9.4375 12.875 C-10.11619141 13.67550781 -10.11619141 13.67550781 -10.80859375 14.4921875 C-12.0878152 16.00594079 -12.0878152 16.00594079 -13 18 C-13.66 18 -14.32 18 -15 18 C-13.53662794 13.53547507 -11.06343413 10.28356746 -8.0625 6.75 C-7.61970703 6.20859375 -7.17691406 5.6671875 -6.72070312 5.109375 C-4.52759459 2.49464054 -3.29844402 1.09948134 0 0 Z " fill="#99B554" transform="translate(141,156)"/>
<path d="M0 0 C2.375 0.75 2.375 0.75 5 2 C5.309375 2.639375 5.61875 3.27875 5.9375 3.9375 C7.50466114 6.97963633 9.9781035 7.58549525 13 9 C13.33 9.66 13.66 10.32 14 11 C16.02463255 11.65213292 16.02463255 11.65213292 18 12 C18 12.66 18 13.32 18 14 C18.721875 14.28875 19.44375 14.5775 20.1875 14.875 C22.79166667 15.91666667 25.39583333 16.95833333 28 18 C27.34 18.66 26.68 19.32 26 20 C7.47945205 9.94520548 7.47945205 9.94520548 0 3 C0 2.01 0 1.02 0 0 Z " fill="#9CB55C" transform="translate(155,372)"/>
<path d="M0 0 C14.78132118 -0.3690205 14.78132118 -0.3690205 21 2 C17.98968256 2.93423645 17.13349732 3.04449911 14 2 C13.67 2.66 13.34 3.32 13 4 C13 3.34 13 2.68 13 2 C12.34 2 11.68 2 11 2 C10.34 3.32 9.68 4.64 9 6 C4.05 4.02 4.05 4.02 -1 2 C-0.67 1.34 -0.34 0.68 0 0 Z " fill="#604D3F" transform="translate(228,101)"/>
<path d="M0 0 C2.625 0.3125 2.625 0.3125 4.5 2.125 C4.87125 2.846875 5.2425 3.56875 5.625 4.3125 C5.295 5.3025 4.965 6.2925 4.625 7.3125 C3.635 6.6525 2.645 5.9925 1.625 5.3125 C0.965 7.6225 0.305 9.9325 -0.375 12.3125 C-2.93795176 9.64275858 -3.36837817 8.41017206 -3.625 4.625 C-3.3088014 0.43536861 -3.3088014 0.43536861 0 0 Z " fill="#93B14A" transform="translate(131.375,281.6875)"/>
<path d="M0 0 C0.33 0 0.66 0 1 0 C1.02505615 0.96413818 1.0501123 1.92827637 1.07592773 2.92163086 C1.16985306 6.48687842 1.27010939 10.05192433 1.37231445 13.61694336 C1.41571985 15.16214289 1.45739071 16.70739214 1.49731445 18.25268555 C1.55488199 20.46939096 1.61861424 22.6858448 1.68359375 24.90234375 C1.70030624 25.5971434 1.71701874 26.29194305 1.73423767 27.00779724 C1.56502856 30.28762029 1.56502856 30.28762029 3 33 C3.07313567 35.53049402 3.09247527 38.03304837 3.0625 40.5625 C3.05798828 41.27341797 3.05347656 41.98433594 3.04882812 42.71679688 C3.03700864 44.47790013 3.01907263 46.23896036 3 48 C2.67 48 2.34 48 2 48 C0.09117964 37.27230048 -0.24755341 26.98138223 -0.125 16.125 C-0.11493595 14.55078703 -0.10581623 12.97656774 -0.09765625 11.40234375 C-0.07594651 7.60140179 -0.04161198 3.80077401 0 0 Z " fill="#9EB85D" transform="translate(100,240)"/>
<path d="M0 0 C1.508013 0.92455559 3.00624917 1.8650747 4.5 2.8125 C5.75296875 3.59560547 5.75296875 3.59560547 7.03125 4.39453125 C7.6809375 4.92433594 8.330625 5.45414063 9 6 C9 6.99 9 7.98 9 9 C11.97 9.33 14.94 9.66 18 10 C18 10.33 18 10.66 18 11 C12.69135918 11.34005528 8.32201333 11.56983333 3.375 9.4375 C0.36901868 6.3524139 0.16278235 4.23234104 0 0 Z " fill="#5C493B" transform="translate(188,225)"/>
<path d="M0 0 C2.08304538 -0.05418326 4.16649768 -0.09287551 6.25 -0.125 C7.99023438 -0.15980469 7.99023438 -0.15980469 9.765625 -0.1953125 C12.82786046 -0.0103949 14.44202751 0.39176977 17 2 C15.35 2.66 13.7 3.32 12 4 C12.33 5.32 12.66 6.64 13 8 C8.71 6.02 4.42 4.04 0 2 C0 1.34 0 0.68 0 0 Z " fill="#6E594B" transform="translate(303,105)"/>
<path d="M0 0 C2.96985717 1.58392382 3.769266 2.37029801 4.8125 5.5 C3.109375 6.6171875 3.109375 6.6171875 0.8125 7.5 C-1.546875 6.8203125 -1.546875 6.8203125 -3.9375 5.625 C-5.13632813 5.04105469 -5.13632813 5.04105469 -6.359375 4.4453125 C-6.96265625 4.13335937 -7.5659375 3.82140625 -8.1875 3.5 C-4.05190678 -0.63559322 -4.05190678 -0.63559322 0 0 Z " fill="#FDFDF3" transform="translate(188.1875,367.5)"/>
<path d="M0 0 C5 2 5 2 7 3 C6.34 5.97 5.68 8.94 5 12 C4.67 11.34 4.34 10.68 4 10 C2.68 10.33 1.36 10.66 0 11 C0 7.37 0 3.74 0 0 Z " fill="#55372A" transform="translate(295,322)"/>
<path d="M0 0 C2.97 0.495 2.97 0.495 6 1 C6.33 1.99 6.66 2.98 7 4 C7.99 4.33 8.98 4.66 10 5 C10.45375 5.845625 10.9075 6.69125 11.375 7.5625 C11.91125 8.366875 12.4475 9.17125 13 10 C15.62694422 10.41780879 15.62694422 10.41780879 18 10 C18 10.66 18 11.32 18 12 C17.34 12 16.68 12 16 12 C15.67 12.99 15.34 13.98 15 15 C9.80208038 10.55814142 4.59230925 6.0802421 0 1 C0 0.67 0 0.34 0 0 Z " fill="#96B452" transform="translate(138,358)"/>
<path d="M0 0 C0.90492188 0.30744141 0.90492188 0.30744141 1.828125 0.62109375 C3.02695312 1.02521484 3.02695312 1.02521484 4.25 1.4375 C5.03890625 1.70433594 5.8278125 1.97117187 6.640625 2.24609375 C8.74821988 2.91954708 10.84753973 3.49150595 13 4 C13.33 3.34 13.66 2.68 14 2 C14.99 2.66 15.98 3.32 17 4 C16 5.5 16 5.5 14 7 C7.49975333 7.85249137 7.49975333 7.85249137 4.14453125 5.9453125 C2.5 4.625 2.5 4.625 0 2 C0 1.34 0 0.68 0 0 Z " fill="#584435" transform="translate(303,288)"/>
<path d="M0 0 C0.33 0 0.66 0 1 0 C1.28591127 3.0695002 1.25030568 4.60568283 -0.42578125 7.24609375 C-1.04839844 7.96925781 -1.67101562 8.69242188 -2.3125 9.4375 C-5.10021913 12.83100116 -7.23766762 15.94663552 -9 20 C-9.27714844 20.63421875 -9.55429688 21.2684375 -9.83984375 21.921875 C-10.57218706 23.60930197 -11.28768834 25.30401987 -12 27 C-12.66 27 -13.32 27 -14 27 C-12.71915825 21.83041708 -10.85757396 17.52395778 -8.125 12.9375 C-7.78597656 12.35162109 -7.44695312 11.76574219 -7.09765625 11.16210938 C-4.8673065 7.34168138 -2.54373144 3.61738433 0 0 Z " fill="#F2F9D4" transform="translate(138,164)"/>
<path d="M0 0 C5.61946506 3.4524818 10.0679294 6.67267854 14 12 C10.34683329 10.75023244 9.21934164 10.32901247 7 7 C6.01 6.67 5.02 6.34 4 6 C4.33 7.051875 4.66 8.10375 5 9.1875 C5.83966782 12.38873357 6.19750904 14.7411008 6 18 C3.98996365 14.98494548 3.00828459 12.42503788 1.875 9 C1.52179688 7.948125 1.16859375 6.89625 0.8046875 5.8125 C0 3 0 3 0 0 Z " fill="#99B35A" transform="translate(360,219)"/>
<path d="M0 0 C0.33 0 0.66 0 1 0 C0.67 7.26 0.34 14.52 0 22 C-0.66 22 -1.32 22 -2 22 C-2 23.98 -2 25.96 -2 28 C-2.66 27.67 -3.32 27.34 -4 27 C-3.52470401 23.2494988 -3.04409198 19.49969753 -2.5625 15.75 C-2.42779297 14.68652344 -2.29308594 13.62304688 -2.15429688 12.52734375 C-2.02216797 11.50253906 -1.89003906 10.47773438 -1.75390625 9.421875 C-1.63345947 8.47924805 -1.5130127 7.53662109 -1.38891602 6.56542969 C-1.04894631 4.32286742 -0.59605926 2.18630037 0 0 Z " fill="#E3F2BA" transform="translate(332,340)"/>
<path d="M0 0 C2 3 2 3 2 5 C2.66 5 3.32 5 4 5 C4 5.66 4 6.32 4 7 C0.95016004 8.52491998 -1.6423369 8.23562548 -5 8 C-5.99 7.01 -6.98 6.02 -8 5 C-4.04 2.525 -4.04 2.525 0 0 Z " fill="#685143" transform="translate(147,169)"/>
<path d="M0 0 C2.31 0.66 4.62 1.32 7 2 C6.34 3.65 5.68 5.3 5 7 C1.37 7 -2.26 7 -6 7 C-6 6.34 -6 5.68 -6 5 C-4.34467377 3.98133771 -2.67739862 2.98189187 -1 2 C-0.67 1.34 -0.34 0.68 0 0 Z " fill="#8CB33B" transform="translate(334,372)"/>
<path d="M0 0 C-0.66 0.66 -1.32 1.32 -2 2 C-3.0209375 1.505 -3.0209375 1.505 -4.0625 1 C-10.19391289 -1.08728949 -16.69493596 0.19935695 -23 1 C-23.33 0.34 -23.66 -0.32 -24 -1 C-16.21474303 -5.15213705 -7.74760793 -3.14395684 0 0 Z " fill="#9FB862" transform="translate(379,372)"/>
<path d="M0 0 C2.96656949 5.49687876 4.4036063 11.74410231 4 18 C1.69 16.02 -0.62 14.04 -3 12 C-2.505 11.505 -2.01 11.01 -1.5 10.5 C0.66978095 6.88369842 0.20888419 4.17768384 0 0 Z " fill="#645342" transform="translate(176,313)"/>
<path d="M0 0 C-1.02351522 2.20449433 -2.0309963 4.03843541 -3.5625 5.9375 C-5.20628942 8.29598047 -5.60798393 10.17748429 -6 13 C-7.32 12.34 -8.64 11.68 -10 11 C-9.40114059 7.6989701 -8.30314403 5.78574977 -6.125 3.25 C-5.61195313 2.63640625 -5.09890625 2.0228125 -4.5703125 1.390625 C-3 0 -3 0 0 0 Z " fill="#5A483B" transform="translate(199,215)"/>
<path d="M0 0 C2 3.75 2 3.75 2 6 C1.401875 6.37125 0.80375 6.7425 0.1875 7.125 C-2.98256734 9.84220057 -3.70851555 13.11771946 -5 17 C-5.9375 19.4375 -5.9375 19.4375 -7 21 C-9.06640625 21.59765625 -9.06640625 21.59765625 -11 22 C-7.33333333 14.66666667 -3.66666667 7.33333333 0 0 Z " fill="#9CB858" transform="translate(372,329)"/>
<path d="M0 0 C0.33 1.32 0.66 2.64 1 4 C1.66 4.33 2.32 4.66 3 5 C0.03 8.63 -2.94 12.26 -6 16 C-6.66 15.67 -7.32 15.34 -8 15 C-5.36 10.05 -2.72 5.1 0 0 Z " fill="#9DB561" transform="translate(357,336)"/>
<path d="M0 0 C-6.985926 3.6320271 -14.03204267 6.70826287 -22 6 C-18.95086613 3.96724409 -16.08297393 2.67930554 -12.6875 1.3125 C-11.02267578 0.62607422 -11.02267578 0.62607422 -9.32421875 -0.07421875 C-5.73864198 -1.07278713 -3.57502784 -0.89240483 0 0 Z " fill="#9CB859" transform="translate(324,381)"/>
<path d="M0 0 C3 3 6 6 9 9 C6.525 10.485 6.525 10.485 4 12 C0.46209597 8.30827405 0.40884117 4.90609405 0 0 Z " fill="#574435" transform="translate(261,97)"/>
<path d="M0 0 C1.093125 0.28875 2.18625 0.5775 3.3125 0.875 C3.6425 1.535 3.9725 2.195 4.3125 2.875 C1.3425 2.545 -1.6275 2.215 -4.6875 1.875 C-4.66429687 2.64585937 -4.64109375 3.41671875 -4.6171875 4.2109375 C-4.59914062 5.21382813 -4.58109375 6.21671875 -4.5625 7.25 C-4.53929687 8.24773437 -4.51609375 9.24546875 -4.4921875 10.2734375 C-4.6875 12.875 -4.6875 12.875 -6.6875 14.875 C-7.92514438 11.16206685 -8.22987826 7.73363391 -7.6875 3.875 C-5.39734684 0.11914881 -4.42394704 -0.14996431 0 0 Z " fill="#9CB45E" transform="translate(192.6875,303.125)"/>
<path d="M0 0 C2.34938117 6.24480673 -1.61731009 13.86683397 -4.16015625 19.62890625 C-5.06456181 21.44095898 -6.02534878 23.22474241 -7 25 C-7.33 25 -7.66 25 -8 25 C-8.26018799 21.02685907 -7.62327979 18.76721025 -5.6875 15.3125 C-3.06493923 10.35794628 -1.41584811 5.41015131 0 0 Z " fill="#99B358" transform="translate(398,303)"/>
<path d="M0 0 C-1.95330868 1.03041513 -3.91281528 2.0490893 -5.875 3.0625 C-6.96554687 3.63097656 -8.05609375 4.19945312 -9.1796875 4.78515625 C-10.11039062 5.18605469 -11.04109375 5.58695312 -12 6 C-12.66 5.67 -13.32 5.34 -14 5 C-14 4.67 -14 4.34 -14 4 C-16.64 4 -19.28 4 -22 4 C-22 3.67 -22 3.34 -22 3 C-20.69675781 2.81824219 -20.69675781 2.81824219 -19.3671875 2.6328125 C-18.21476562 2.46523438 -17.06234375 2.29765625 -15.875 2.125 C-14.16957031 1.88136719 -14.16957031 1.88136719 -12.4296875 1.6328125 C-8.985836 1.08786574 -8.985836 1.08786574 -5.7578125 -0.1328125 C-3 -1 -3 -1 0 0 Z " fill="#A6B96F" transform="translate(308,372)"/>
<path d="M0 0 C2.88437779 1.29299694 4.87219421 2.65941363 7 5 C7 4.34 7 3.68 7 3 C7.66 3 8.32 3 9 3 C8.979375 3.78375 8.95875 4.5675 8.9375 5.375 C8.81315937 7.98114961 8.81315937 7.98114961 10 10 C5.01987239 8.49087042 1.75740058 5.44338151 -2 2 C-1.34 1.34 -0.68 0.68 0 0 Z " fill="#98B552" transform="translate(172,351)"/>
<path d="M0 0 C6 7.5 6 7.5 12 15 C10.02 15.99 10.02 15.99 8 17 C6.99491199 15.21118264 5.99607264 13.41885304 5 11.625 C4.1646875 10.12839844 4.1646875 10.12839844 3.3125 8.6015625 C2 6 2 6 2 4 C1.34 4 0.68 4 0 4 C0 2.68 0 1.36 0 0 Z " fill="#99B558" transform="translate(134,326)"/>
<path d="M0 0 C0 0.66 0 1.32 0 2 C0.66 2.33 1.32 2.66 2 3 C0.9171875 3.309375 0.9171875 3.309375 -0.1875 3.625 C-2.94750232 4.97433447 -3.84521014 5.80020565 -5.6875 8.125 C-6.450625 9.07375 -7.21375 10.0225 -8 11 C-8.66 11 -9.32 11 -10 11 C-8.85373196 7.12032356 -7.77395969 3.99587647 -5 1 C-2 0 -2 0 0 0 Z " fill="#96B34F" transform="translate(334,324)"/>
<path d="M0 0 C0.33 0 0.66 0 1 0 C1.02948491 3.14581302 1.04695916 6.29158963 1.0625 9.4375 C1.07087891 10.31599609 1.07925781 11.19449219 1.08789062 12.09960938 C1.10899107 17.81783077 0.73280057 23.32800815 0 29 C-0.99 29.33 -1.98 29.66 -3 30 C-2.86722656 29.34257812 -2.73445313 28.68515625 -2.59765625 28.0078125 C-0.86977902 18.69997747 -0.39847914 9.43766381 0 0 Z " fill="#A5BD6A" transform="translate(381,282)"/>
<path d="M0 0 C4.91935902 4.11619836 9.52647956 8.40410362 14 13 C13.34 13.66 12.68 14.32 12 15 C11.67 14.01 11.34 13.02 11 12 C10.34 12 9.68 12 9 12 C9 11.34 9 10.68 9 10 C6.66785852 8.79371992 4.50357861 7.8345262 2 7 C2 5.68 2 4.36 2 3 C1.34 3 0.68 3 0 3 C0 2.01 0 1.02 0 0 Z " fill="#9AB559" transform="translate(147,344)"/>
<path d="M0 0 C3.74123976 4.2954975 6.34151874 8.99900452 9 14 C8.34 14 7.68 14 7 14 C7 13.34 7 12.68 7 12 C6.01 12.33 5.02 12.66 4 13 C3.67 12.01 3.34 11.02 3 10 C2.34 10 1.68 10 1 10 C0.67 6.7 0.34 3.4 0 0 Z " fill="#99B451" transform="translate(215,336)"/>
<path d="M0 0 C0.33 0 0.66 0 1 0 C0.41640925 8.31616812 -1.73799414 16.01459326 -4 24 C-4.33 24 -4.66 24 -5 24 C-3.20754717 3.20754717 -3.20754717 3.20754717 0 0 Z " fill="#9CB45C" transform="translate(377,293)"/>
<path d="M0 0 C2.981078 4.47161699 3.28975819 7.68776652 3 13 C2.34 13.66 1.68 14.32 1 15 C-2.625 14.625 -2.625 14.625 -6 14 C-6 13.67 -6 13.34 -6 13 C-4.02 12.67 -2.04 12.34 0 12 C0 8.04 0 4.08 0 0 Z " fill="#EBF5C7" transform="translate(193,331)"/>
<path d="M0 0 C0.99 0 1.98 0 3 0 C3 0.99 3 1.98 3 3 C3.99 3 4.98 3 6 3 C6 4.32 6 5.64 6 7 C7.32 7.33 8.64 7.66 10 8 C10.66 10.31 11.32 12.62 12 15 C7.47619711 10.75036698 3.61682339 6.04479113 0 1 C0 0.67 0 0.34 0 0 Z " fill="#9CB65A" transform="translate(148,328)"/>
<path d="M0 0 C2.9156164 3.54039134 5.50127818 7.1626772 8 11 C4.95153135 10.67043582 3.41570354 10.4305501 1.25 8.1875 C0.03154156 6.05519773 -0.67619909 4.42850679 -1 2 C-0.67 1.34 -0.34 0.68 0 0 Z " fill="#99B655" transform="translate(144,300)"/>
<path d="M0 0 C0.66 0.33 1.32 0.66 2 1 C2 3.31 2 5.62 2 8 C0.35 7.67 -1.3 7.34 -3 7 C-3.33 7.66 -3.66 8.32 -4 9 C-3.6875 5.625 -3.6875 5.625 -3 2 C-2.01 1.34 -1.02 0.68 0 0 Z " fill="#90B340" transform="translate(123,180)"/>
<path d="M0 0 C1.00016187 2.00032373 1.49396008 3.83125748 2 6 C2.66 4.68 3.32 3.36 4 2 C4.66 2.33 5.32 2.66 6 3 C4.35 6.3 2.7 9.6 1 13 C0.67 13 0.34 13 0 13 C-0.33 11.02 -0.66 9.04 -1 7 C-1.99 6.67 -2.98 6.34 -4 6 C-2.68 4.02 -1.36 2.04 0 0 Z " fill="#9CB75D" transform="translate(125,174)"/>
<path d="M0 0 C0 3 0 3 -1.609375 4.9375 C-2.31578125 5.618125 -3.0221875 6.29875 -3.75 7 C-4.44609375 7.680625 -5.1421875 8.36125 -5.859375 9.0625 C-7.83014776 10.84626513 -9.84498901 12.44683893 -12 14 C-12.66 13.67 -13.32 13.34 -14 13 C-12.23223041 11.20521865 -10.46097441 9.4141293 -8.6875 7.625 C-8.18798828 7.11710938 -7.68847656 6.60921875 -7.17382812 6.0859375 C-4.87457613 3.77145867 -2.72478775 1.81652517 0 0 Z " fill="#5D4839" transform="translate(174,143)"/>
<path d="M0 0 C0.99 0.33 1.98 0.66 3 1 C3 1.66 3 2.32 3 3 C3.66 3 4.32 3 5 3 C6.5078125 4.64453125 6.5078125 4.64453125 8.125 6.8125 C8.66382813 7.52019531 9.20265625 8.22789062 9.7578125 8.95703125 C11 11 11 11 11 14 C11.66 14.33 12.32 14.66 13 15 C12.01 15 11.02 15 10 15 C8.13344263 12.72191818 6.46451918 10.48750391 4.8125 8.0625 C4.34908203 7.40314453 3.88566406 6.74378906 3.40820312 6.06445312 C0 1.17049429 0 1.17049429 0 0 Z " fill="#9CB45A" transform="translate(122,337)"/>
<path d="M0 0 C7.48291572 6.15034169 7.48291572 6.15034169 10 10 C9.01 10.66 8.02 11.32 7 12 C6.773125 11.195625 6.54625 10.39125 6.3125 9.5625 C5.879375 8.716875 5.44625 7.87125 5 7 C2.45224694 6.10613836 2.45224694 6.10613836 0 6 C-1.125 2.25 -1.125 2.25 0 0 Z " fill="#97B553" transform="translate(226,353)"/>
<path d="M0 0 C0.66 0.99 1.32 1.98 2 3 C1.125 5.6875 1.125 5.6875 0 8 C-1.65 7.67 -3.3 7.34 -5 7 C-4.6875 5.0625 -4.6875 5.0625 -4 3 C-3.01 2.67 -2.02 2.34 -1 2 C-0.67 1.34 -0.34 0.68 0 0 Z M-7 8 C-6.01 8 -5.02 8 -4 8 C-4.33 8.66 -4.66 9.32 -5 10 C-5.66 9.34 -6.32 8.68 -7 8 Z " fill="#8FB141" transform="translate(364,348)"/>
<path d="M0 0 C0 1.65 0 3.3 0 5 C0.99 5 1.98 5 3 5 C1.25 8.875 1.25 8.875 -1 10 C-1.28875 9.195625 -1.5775 8.39125 -1.875 7.5625 C-2.73262568 4.8673532 -2.73262568 4.8673532 -5 4 C-1.125 0 -1.125 0 0 0 Z " fill="#F4F9D8" transform="translate(359,343)"/>
<path d="M0 0 C1.95273962 2.92910944 2.75396363 5.08132291 3.6875 8.4375 C3.95949219 9.38496094 4.23148437 10.33242188 4.51171875 11.30859375 C4.99803744 13.98918237 4.89369149 15.46287583 4 18 C3.34 17.67 2.68 17.34 2 17 C1.52381188 14.12817413 1.15832403 11.32879853 0.875 8.4375 C0.78863281 7.63119141 0.70226562 6.82488281 0.61328125 5.99414062 C0.40056372 3.99695936 0.19922145 1.99857263 0 0 Z " fill="#9DB55B" transform="translate(394,260)"/>
<path d="M0 0 C0.433125 0.61875 0.86625 1.2375 1.3125 1.875 C2.99740483 4.2197245 2.99740483 4.2197245 6 6 C2.25 9 2.25 9 0 9 C-0.66 8.01 -1.32 7.02 -2 6 C-2.99 6 -3.98 6 -5 6 C-3.35 4.02 -1.7 2.04 0 0 Z " fill="#F0F8D5" transform="translate(339,359)"/>
<path d="M0 0 C3.06081203 2.75473082 4.89882863 4.99574049 6 9 C5.54296875 11.15625 5.54296875 11.15625 5 13 C4.66226563 12.43410156 4.32453125 11.86820313 3.9765625 11.28515625 C3.53054687 10.55167969 3.08453125 9.81820312 2.625 9.0625 C1.96371094 7.96615234 1.96371094 7.96615234 1.2890625 6.84765625 C0.1226016 4.86227728 0.1226016 4.86227728 -2 4 C-2 3.34 -2 2.68 -2 2 C-1.34 2 -0.68 2 0 2 C0 1.34 0 0.68 0 0 Z " fill="#68584A" transform="translate(172,227)"/>
<path d="M0 0 C0.33 0 0.66 0 1 0 C1.04254356 1.99954746 1.04080783 4.00041636 1 6 C0.67 6.33 0.34 6.66 0 7 C-0.07205511 8.68608966 -0.08386068 10.37500659 -0.0625 12.0625 C-0.05347656 12.98160156 -0.04445313 13.90070313 -0.03515625 14.84765625 C-0.02355469 15.55792969 -0.01195313 16.26820313 0 17 C-1.32 17 -2.64 17 -4 17 C-3.45018084 10.95198929 -2.09570426 5.69398894 0 0 Z " fill="#9DB659" transform="translate(108,207)"/>
<path d="M0 0 C1.98 0 3.96 0 6 0 C1.85989729 4.54075781 -2.82390176 7.71842138 -8 11 C-8 10.01 -8 9.02 -8 8 C-7.401875 7.7525 -6.80375 7.505 -6.1875 7.25 C-3.08065721 5.47466126 -1.5788171 3.15763421 0 0 Z " fill="#F4FBD7" transform="translate(161,132)"/>
<path d="M0 0 C0.78375 0.474375 1.5675 0.94875 2.375 1.4375 C3.88948678 2.33898023 5.4235897 3.21179485 7 4 C7 4.66 7 5.32 7 6 C7.66 6.66 8.32 7.32 9 8 C8.625 10.125 8.625 10.125 8 12 C6.87278564 10.73113036 5.74831342 9.45982438 4.625 8.1875 C3.99851562 7.47980469 3.37203125 6.77210938 2.7265625 6.04296875 C1 4 1 4 -1 1 C-0.67 0.67 -0.34 0.34 0 0 Z " fill="#5D4637" transform="translate(268,287)"/>
<path d="M0 0 C0.33 0 0.66 0 1 0 C1.05423638 1.91635217 1.09289963 3.83314925 1.125 5.75 C1.14820312 6.81734375 1.17140625 7.8846875 1.1953125 8.984375 C1.00487687 11.92470106 0.52670104 13.52361878 -1 16 C-1.66 16 -2.32 16 -3 16 C-2.40984815 10.49191603 -1.43336231 5.35121931 0 0 Z " fill="#F4FAD6" transform="translate(118,204)"/>
<path d="M0 0 C1.134375 0.020625 2.26875 0.04125 3.4375 0.0625 C3.4375 3.0625 3.4375 3.0625 2.4375 6.0625 C1.4475 6.3925 0.4575 6.7225 -0.5625 7.0625 C-1.8825 5.0825 -3.2025 3.1025 -4.5625 1.0625 C-3.5625 0.0625 -3.5625 0.0625 0 0 Z " fill="#604639" transform="translate(221.5625,192.9375)"/>
<path d="M0 0 C1 3 1 3 1 5 C1.99 5.33 2.98 5.66 4 6 C2.35 6.33 0.7 6.66 -1 7 C-1.33 8.65 -1.66 10.3 -2 12 C-2.28875 11.360625 -2.5775 10.72125 -2.875 10.0625 C-3.82823451 7.84793921 -3.82823451 7.84793921 -6 7 C-4.02 4.69 -2.04 2.38 0 0 Z " fill="#634D43" transform="translate(154,179)"/>
<path d="M0 0 C0 0.99 0 1.98 0 3 C-4.455 4.485 -4.455 4.485 -9 6 C-9.33 4.68 -9.66 3.36 -10 2 C-6.7 1.34 -3.4 0.68 0 0 Z " fill="#93B249" transform="translate(294,375)"/>
<path d="M0 0 C0.66 0 1.32 0 2 0 C2 0.66 2 1.32 2 2 C4.475 2.99 4.475 2.99 7 4 C7 4.99 7 5.98 7 7 C7.7734375 7.7115625 7.7734375 7.7115625 8.5625 8.4375 C9.036875 8.953125 9.51125 9.46875 10 10 C9.58984375 12.09765625 9.58984375 12.09765625 9 14 C7.49717827 11.85609361 5.99764203 9.71001973 4.5 7.5625 C4.07074219 6.95083984 3.64148438 6.33917969 3.19921875 5.70898438 C0 1.11328125 0 1.11328125 0 0 Z " fill="#F2FBD4" transform="translate(144,299)"/>
<path d="M0 0 C0.33 0 0.66 0 1 0 C1.58040933 3.00929622 2.0493481 5.92945128 2 9 C0.1875 10.8125 0.1875 10.8125 -2 12 C-3.2516467 14.08334635 -3.2516467 14.08334635 -4 16 C-4.6319296 9.99666876 -2.37544123 5.36595205 0 0 Z " fill="#5B4638" transform="translate(293,254)"/>
<path d="M0 0 C1.32 0.33 2.64 0.66 4 1 C3.26330078 1.58201172 3.26330078 1.58201172 2.51171875 2.17578125 C0.49274247 4.61211696 0.69101195 6.06930672 0.8125 9.1875 C0.83957031 10.08855469 0.86664063 10.98960937 0.89453125 11.91796875 C0.92933594 12.60503906 0.96414062 13.29210937 1 14 C0.01 13.67 -0.98 13.34 -2 13 C-2.05447047 11.58376784 -2.09300508 10.16691809 -2.125 8.75 C-2.14820313 7.96109375 -2.17140625 7.1721875 -2.1953125 6.359375 C-1.9828378 3.79268059 -1.28654105 2.2083933 0 0 Z " fill="#F3FAD5" transform="translate(185,303)"/>
<path d="M0 0 C-0.33 0.66 -0.66 1.32 -1 2 C-0.67 2.33 -0.34 2.66 0 3 C-2.35953094 5.35953094 -3.77895617 5.49141413 -7 6 C-7.66 4.68 -8.32 3.36 -9 2 C-3.375 0 -3.375 0 0 0 Z " fill="#644D3F" transform="translate(217,228)"/>
<path d="M0 0 C6.27 1.98 12.54 3.96 19 6 C19 6.33 19 6.66 19 7 C11.87391001 6.70245971 6.3327492 5.28874656 0 2 C0 1.34 0 0.68 0 0 Z " fill="#F4FCD7" transform="translate(192,397)"/>
<path d="M0 0 C3.3 1.65 6.6 3.3 10 5 C9.67 5.99 9.34 6.98 9 8 C6.69 7.34 4.38 6.68 2 6 C2 4.68 2 3.36 2 2 C1.34 2 0.68 2 0 2 C0 1.34 0 0.68 0 0 Z " fill="#98B451" transform="translate(184,374)"/>
<path d="M0 0 C0.66 0 1.32 0 2 0 C2.33 1.32 2.66 2.64 3 4 C4.65 4 6.3 4 8 4 C8.33 4.99 8.66 5.98 9 7 C8.01 8.485 8.01 8.485 7 10 C4.36 7.36 1.72 4.72 -1 2 C-0.67 1.34 -0.34 0.68 0 0 Z " fill="#A0BB62" transform="translate(161,342)"/>
<path d="M0 0 C0.33 0 0.66 0 1 0 C2.32388229 6.43028541 3.24794402 12.4294834 3 19 C2.67 19 2.34 19 2 19 C2 17.02 2 15.04 2 13 C1.34 13 0.68 13 0 13 C0 8.71 0 4.42 0 0 Z " fill="#EDF5CD" transform="translate(365,237)"/>
<path d="M0 0 C2 2 2 2 2.125 5.625 C2.08375 6.73875 2.0425 7.8525 2 9 C1.67 9 1.34 9 1 9 C0.67 11.31 0.34 13.62 0 16 C-0.66 15.34 -1.32 14.68 -2 14 C-1.77257316 11.27087796 -1.45810647 8.68888582 -1 6 C-0.814375 4.845 -0.62875 3.69 -0.4375 2.5 C-0.293125 1.675 -0.14875 0.85 0 0 Z " fill="#9AB55A" transform="translate(103,224)"/>
<path d="M0 0 C0.66 0.33 1.32 0.66 2 1 C0.43122326 2.5358444 -1.15556154 4.05331331 -2.75 5.5625 C-3.63171875 6.40941406 -4.5134375 7.25632813 -5.421875 8.12890625 C-6.27265625 8.74636719 -7.1234375 9.36382812 -8 10 C-9.32 9.67 -10.64 9.34 -12 9 C-8.04 6.03 -4.08 3.06 0 0 Z " fill="#AAB878" transform="translate(167,132)"/>
<path d="M0 0 C3.76854223 1.25618074 4.07958456 2.66014706 6 6 C6.66 6.33 7.32 6.66 8 7 C7.67 8.65 7.34 10.3 7 12 C3.6497537 8.18765077 1.83025211 4.66714289 0 0 Z " fill="#97B455" transform="translate(115,324)"/>
<path d="M0 0 C0.33 0 0.66 0 1 0 C0.67 2.97 0.34 5.94 0 9 C-1.65 9.33 -3.3 9.66 -5 10 C-5 9.34 -5 8.68 -5 8 C-4.34 8 -3.68 8 -3 8 C-2.87625 7.05125 -2.7525 6.1025 -2.625 5.125 C-2 2 -2 2 0 0 Z " fill="#F8FDE7" transform="translate(373,320)"/>
<path d="M0 0 C5 7.5 5 7.5 5 11 C4.34 11 3.68 11 3 11 C2.67 12.32 2.34 13.64 2 15 C1.34 15 0.68 15 0 15 C0.08378906 14.36191406 0.16757813 13.72382813 0.25390625 13.06640625 C0.35574219 12.24011719 0.45757812 11.41382813 0.5625 10.5625 C0.66691406 9.73878906 0.77132812 8.91507812 0.87890625 8.06640625 C0.91886719 7.38449219 0.95882812 6.70257813 1 6 C0.67 5.67 0.34 5.34 0 5 C-0.04063832 3.33382885 -0.042721 1.66611905 0 0 Z " fill="#97B456" transform="translate(123,305)"/>
<path d="M0 0 C2 1.375 2 1.375 4 3 C4 3.66 4 4.32 4 5 C6.97 5.33 9.94 5.66 13 6 C13 6.33 13 6.66 13 7 C11.20841511 7.02696365 9.41671527 7.04637917 7.625 7.0625 C6.62726563 7.07410156 5.62953125 7.08570313 4.6015625 7.09765625 C2 7 2 7 0 6 C0 4.02 0 2.04 0 0 Z " fill="#6D594B" transform="translate(193,229)"/>
<path d="M0 0 C-0.969375 0.474375 -1.93875 0.94875 -2.9375 1.4375 C-5.80477437 2.70193947 -5.80477437 2.70193947 -7 4 C-8.51928038 4.07179964 -10.04167482 4.08392007 -11.5625 4.0625 C-12.38878906 4.05347656 -13.21507812 4.04445313 -14.06640625 4.03515625 C-14.70449219 4.02355469 -15.34257812 4.01195312 -16 4 C-13.41588269 2.27725513 -11.45097344 1.31104478 -8.5625 0.3125 C-7.41974609 -0.09548828 -7.41974609 -0.09548828 -6.25390625 -0.51171875 C-3.78170279 -1.04729142 -2.37016716 -0.80445309 0 0 Z " fill="#EFF8D0" transform="translate(304,400)"/>
<path d="M0 0 C0.66 0 1.32 0 2 0 C2 0.66 2 1.32 2 2 C3.32 2.33 4.64 2.66 6 3 C4.5882217 3.53394179 3.17029756 4.05165104 1.75 4.5625 C0.96109375 4.85253906 0.1721875 5.14257812 -0.640625 5.44140625 C-3.19103452 6.04522837 -4.55322229 5.8473932 -7 5 C-6.21625 4.54625 -5.4325 4.0925 -4.625 3.625 C-1.96301969 2.11571258 -1.96301969 2.11571258 0 0 Z " fill="#F7FDDE" transform="translate(302,382)"/>
<path d="M0 0 C2.62187494 1.04874998 3.79371361 1.64931313 5.25 4.125 C5.4975 4.74375 5.745 5.3625 6 6 C4.35 6.66 2.7 7.32 1 8 C0.03601353 5.1080406 0 3.0005625 0 0 Z " fill="#5A4435" transform="translate(241,271)"/>
<path d="M0 0 C0.99 0 1.98 0 3 0 C1.40109514 5.19644079 -0.74138003 10.06612142 -3 15 C-4.14630236 11.56109292 -3.82148812 10.79308657 -2.625 7.5 C-2.34914063 6.7265625 -2.07328125 5.953125 -1.7890625 5.15625 C-1.52867188 4.4446875 -1.26828125 3.733125 -1 3 C-0.67 2.01 -0.34 1.02 0 0 Z " fill="#F3F9D3" transform="translate(114,187)"/>
<path d="M0 0 C0.33 0 0.66 0 1 0 C1.25 7.625 1.25 7.625 -1 11 C-2.1875 9.4375 -2.1875 9.4375 -3 7 C-1.625 3.25 -1.625 3.25 0 0 Z " fill="#604F41" transform="translate(301,352)"/>
<path d="M0 0 C3.04049801 3.64859761 4.96518762 7.7444533 7 12 C6.01 12.495 6.01 12.495 5 13 C5 12.01 5 11.02 5 10 C4.01 10.33 3.02 10.66 2 11 C0.80712589 7.12315913 0 4.08378077 0 0 Z " fill="#97B355" transform="translate(137,288)"/>
<path d="M0 0 C0.66 0 1.32 0 2 0 C2.33 0.99 2.66 1.98 3 3 C3.66 3.33 4.32 3.66 5 4 C4.67 4.99 4.34 5.98 4 7 C1.9375 7.6875 1.9375 7.6875 0 8 C-1.125 2.25 -1.125 2.25 0 0 Z " fill="#FEFDF1" transform="translate(141,285)"/>
<path d="M0 0 C1.2684375 0.12375 1.2684375 0.12375 2.5625 0.25 C3.2225 1.24 3.8825 2.23 4.5625 3.25 C2.5825 3.25 0.6025 3.25 -1.4375 3.25 C-1.7675 4.9 -2.0975 6.55 -2.4375 8.25 C-2.7675 8.25 -3.0975 8.25 -3.4375 8.25 C-3.47991723 5.91705225 -3.47842937 3.58297433 -3.4375 1.25 C-2.4375 0.25 -2.4375 0.25 0 0 Z " fill="#A0BB61" transform="translate(131.4375,281.75)"/>
<path d="M0 0 C0.33 0 0.66 0 1 0 C1.66 2.31 2.32 4.62 3 7 C0.69 7.33 -1.62 7.66 -4 8 C-2.87548273 5.0280615 -1.77706209 2.66559313 0 0 Z " fill="#5A4437" transform="translate(284,186)"/>
<path d="M0 0 C0.33 0.66 0.66 1.32 1 2 C0.54625 2.5775 0.0925 3.155 -0.375 3.75 C-2.04812698 5.88277022 -2.04812698 5.88277022 -2.875 8.125 C-4.42534442 10.70890737 -6.19652514 11.11469215 -9 12 C-6.2520787 7.72545575 -3.30749011 3.85873847 0 0 Z " fill="#EFF8D4" transform="translate(151,148)"/>
<path d="M0 0 C0.99 0.66 1.98 1.32 3 2 C2.01 2.66 1.02 3.32 0 4 C0.33 4.66 0.66 5.32 1 6 C-0.98 7.32 -2.96 8.64 -5 10 C-5.66 9.67 -6.32 9.34 -7 9 C-4.69 6.03 -2.38 3.06 0 0 Z " fill="#DBCFC1" transform="translate(372,140)"/>
<path d="M0 0 C4.09305456 1.65296434 7.58983503 3.13546142 11 6 C9 7 9 7 6.0625 6.125 C5.051875 5.75375 4.04125 5.3825 3 5 C2.01 4.67 1.02 4.34 0 4 C0 2.68 0 1.36 0 0 Z " fill="#5C4739" transform="translate(250,104)"/>
<path d="M0 0 C1.99097846 2.98646769 2.94124926 5.59687262 4 9 C3.34 9 2.68 9 2 9 C1.34 8.34 0.68 7.68 0 7 C-0.99 8.32 -1.98 9.64 -3 11 C-2.53199289 6.94393835 -2.12046792 3.53411321 0 0 Z " fill="#69574A" transform="translate(285,92)"/>
<path d="M0 0 C1.12894876 0.93274109 2.25300876 1.87140122 3.375 2.8125 C4.00148437 3.33457031 4.62796875 3.85664063 5.2734375 4.39453125 C7 6 7 6 9 9 C7.35 8.67 5.7 8.34 4 8 C4 7.01 4 6.02 4 5 C2.68 4.34 1.36 3.68 0 3 C0 2.01 0 1.02 0 0 Z " fill="#F3F9D6" transform="translate(136,357)"/>
<path d="M0 0 C1.32 0 2.64 0 4 0 C4 1.98 4 3.96 4 6 C3.01 6.495 3.01 6.495 2 7 C0.4375 5.75 0.4375 5.75 -1 4 C-0.6875 1.8125 -0.6875 1.8125 0 0 Z " fill="#58382B" transform="translate(298,337)"/>
<path d="M0 0 C2 2 2 2 2.125 4.625 C2.08375 5.40875 2.0425 6.1925 2 7 C1.34 6.34 0.68 5.68 0 5 C-0.99 7.31 -1.98 9.62 -3 12 C-3.66 12 -4.32 12 -5 12 C-3.85814266 7.52040582 -2.56984833 3.85477249 0 0 Z " fill="#F0F8D4" transform="translate(373,316)"/>
<path d="M0 0 C1.32 0.66 2.64 1.32 4 2 C2.95125002 4.62187494 2.35068687 5.79371361 -0.125 7.25 C-0.74375 7.4975 -1.3625 7.745 -2 8 C-2 6.68 -2 5.36 -2 4 C-1.01 3.67 -0.02 3.34 1 3 C0.67 2.01 0.34 1.02 0 0 Z " fill="#9CB55C" transform="translate(380,374)"/>
<path d="M0 0 C2 1 4 2 6 3 C6.33 2.01 6.66 1.02 7 0 C7.99 1.32 8.98 2.64 10 4 C8.375 4.6875 8.375 4.6875 6 5 C2.75 3.5625 2.75 3.5625 0 2 C0 1.34 0 0.68 0 0 Z " fill="#594636" transform="translate(252,362)"/>
<path d="M0 0 C0.66 0 1.32 0 2 0 C1.67 1.98 1.34 3.96 1 6 C0.01 6.33 -0.98 6.66 -2 7 C-2.66 6.67 -3.32 6.34 -4 6 C-2.84826645 3.53199953 -1.95216435 1.95216435 0 0 Z " fill="#FEFDF4" transform="translate(174,358)"/>
<path d="M0 0 C2.75 0.125 2.75 0.125 6 1 C8.375 4.0625 8.375 4.0625 10 7 C5.56541027 5.6062718 3.12621626 3.39417765 0 0 Z " fill="#F0F9D4" transform="translate(177,337)"/>
<path d="M0 0 C1.38317955 3.84216542 0.9279297 7.07414359 0 11 C-2.05078125 12.71484375 -2.05078125 12.71484375 -4 14 C-3.52188823 12.22888156 -3.0424722 10.45811517 -2.5625 8.6875 C-2.29566406 7.70136719 -2.02882813 6.71523438 -1.75390625 5.69921875 C-1.21920575 3.78482474 -0.62855462 1.88566385 0 0 Z " fill="#A6BD67" transform="translate(377,314)"/>
<path d="M0 0 C2.00293347 3.00440021 2.49271626 4.70993945 3.125 8.1875 C3.29257812 9.08855469 3.46015625 9.98960937 3.6328125 10.91796875 C3.75398438 11.60503906 3.87515625 12.29210937 4 13 C3.34 13 2.68 13 2 13 C1.46845258 11.39935157 0.95011647 9.79431126 0.4375 8.1875 C0.14746094 7.29417969 -0.14257812 6.40085938 -0.44140625 5.48046875 C-1 3 -1 3 0 0 Z " fill="#F1F7D0" transform="translate(361,224)"/>
<path d="M0 0 C0.66 0.33 1.32 0.66 2 1 C0.48328036 5.55015893 -3.16891053 7.50057264 -7 10 C-7.66 9.67 -8.32 9.34 -9 9 C-6.03 6.03 -3.06 3.06 0 0 Z " fill="#F3E6D9" transform="translate(234,184)"/>
<path d="M0 0 C3.96 1.98 3.96 1.98 8 4 C8 4.33 8 4.66 8 5 C5.03 5.66 2.06 6.32 -1 7 C-1 6.34 -1 5.68 -1 5 C-0.01 5 0.98 5 2 5 C2 4.01 2 3.02 2 2 C1.34 2 0.68 2 0 2 C0 1.34 0 0.68 0 0 Z " fill="#99B658" transform="translate(241,366)"/>
<path d="M0 0 C3.94120709 0.56302958 6.7508723 1.6791945 10 4 C10 4.66 10 5.32 10 6 C6.40992874 4.66654496 3.20429093 3.1056769 0 1 C0 0.67 0 0.34 0 0 Z " fill="#F3FCD8" transform="translate(239,364)"/>
<path d="M0 0 C0.66 0.33 1.32 0.66 2 1 C2.625 4.0625 2.625 4.0625 3 7 C1.35 6.67 -0.3 6.34 -2 6 C-2 5.01 -2 4.02 -2 3 C-1.34 2.67 -0.68 2.34 0 2 C0 1.34 0 0.68 0 0 Z " fill="#5D4637" transform="translate(292,226)"/>
<path d="M0 0 C-0.66 0 -1.32 0 -2 0 C-1.2575 0.680625 -1.2575 0.680625 -0.5 1.375 C1 3 1 3 1 5 C-1.9375 4.1875 -1.9375 4.1875 -5 3 C-5.33 2.01 -5.66 1.02 -6 0 C-3.50907189 -1.24546405 -2.58919267 -0.7767578 0 0 Z " fill="#A1B768" transform="translate(350,383)"/>
<path d="M0 0 C4.95 0.99 4.95 0.99 10 2 C9.01 3.32 8.02 4.64 7 6 C5.83054208 5.19152271 4.66449539 4.37810888 3.5 3.5625 C2.8503125 3.11003906 2.200625 2.65757812 1.53125 2.19140625 C1.0259375 1.79824219 0.520625 1.40507812 0 1 C0 0.67 0 0.34 0 0 Z " fill="#F1F8D5" transform="translate(162,358)"/>
<path d="M0 0 C0.99 0.33 1.98 0.66 3 1 C0.36 3.97 -2.28 6.94 -5 10 C-5.33 9.34 -5.66 8.68 -6 8 C-5.67 7.01 -5.34 6.02 -5 5 C-4.34 5 -3.68 5 -3 5 C-2.67 4.01 -2.34 3.02 -2 2 C-1.34 2 -0.68 2 0 2 C0 1.34 0 0.68 0 0 Z " fill="#F2FAD3" transform="translate(332,319)"/>
<path d="M0 0 C0.33 0 0.66 0 1 0 C1.4726477 8.19256018 1.4726477 8.19256018 -0.5 11.5625 C-0.995 12.036875 -1.49 12.51125 -2 13 C-2.33 11.35 -2.66 9.7 -3 8 C-2.34 7.67 -1.68 7.34 -1 7 C-0.59270772 4.67843403 -0.25561323 2.3431213 0 0 Z M-5 10 C-4.34 10 -3.68 10 -3 10 C-3.33 10.66 -3.66 11.32 -4 12 C-4.33 11.34 -4.66 10.68 -5 10 Z " fill="#6C584A" transform="translate(270,206)"/>
<path d="M0 0 C-5.445 2.475 -5.445 2.475 -11 5 C-11.33 4.34 -11.66 3.68 -12 3 C-4.8 -1.6 -4.8 -1.6 0 0 Z " fill="#9BB457" transform="translate(323,390)"/>
<path d="M0 0 C2.97 1.65 5.94 3.3 9 5 C5 6 5 6 2 6 C2 5.01 2 4.02 2 3 C1.34 2.67 0.68 2.34 0 2 C0 1.34 0 0.68 0 0 Z " fill="#97B451" transform="translate(174,368)"/>
<path d="M0 0 C0.33 0.66 0.66 1.32 1 2 C0.22265625 3.7265625 0.22265625 3.7265625 -0.9375 5.625 C-1.618125 6.73875 -2.29875 7.8525 -3 9 C-3.66 8.01 -4.32 7.02 -5 6 C-3.63016497 2.83884224 -3.0109362 2.0072908 0 0 Z " fill="#F4FAD9" transform="translate(353,342)"/>
<path d="M0 0 C3 1 3 1 4.6875 3.8125 C6 7 6 7 6 11 C3.13546142 7.58983503 1.65296434 4.09305456 0 0 Z " fill="#96B155" transform="translate(188,320)"/>
<path d="M0 0 C0.99 0.33 1.98 0.66 3 1 C2.6875 2.875 2.6875 2.875 2 5 C1.01 5.66 0.02 6.32 -1 7 C-1 6.34 -1 5.68 -1 5 C-1.66 5 -2.32 5 -3 5 C-2.67 4.01 -2.34 3.02 -2 2 C-1.01 2.33 -0.02 2.66 1 3 C0.67 2.01 0.34 1.02 0 0 Z " fill="#5E4837" transform="translate(229,308)"/>
<path d="M0 0 C0.99 0.495 0.99 0.495 2 1 C1.95875 2.03125 1.9175 3.0625 1.875 4.125 C1.99575149 7.86829627 2.64872018 10.53734547 4 14 C3.34 14 2.68 14 2 14 C0.09391902 10.78817851 -0.22266247 8.46117397 -0.125 4.75 C-0.09792969 3.41195313 -0.09792969 3.41195313 -0.0703125 2.046875 C-0.04710938 1.37140625 -0.02390625 0.6959375 0 0 Z " fill="#F2F9D1" transform="translate(127,282)"/>
<path d="M0 0 C5.875 3.75 5.875 3.75 7 6 C6.34 6.66 5.68 7.32 5 8 C3.02 5.69 1.04 3.38 -1 1 C-0.67 0.67 -0.34 0.34 0 0 Z " fill="#5F4E3E" transform="translate(247,267)"/>
<path d="M0 0 C0.99 0.33 1.98 0.66 3 1 C2.67 2.32 2.34 3.64 2 5 C1.01 5 0.02 5 -1 5 C-1.66 4.01 -2.32 3.02 -3 2 C-2.01 1.34 -1.02 0.68 0 0 Z " fill="#5B4333" transform="translate(243,107)"/>
<path d="M0 0 C1.32 0.33 2.64 0.66 4 1 C3.67 2.65 3.34 4.3 3 6 C2.01 6 1.02 6 0 6 C0 4.02 0 2.04 0 0 Z " fill="#FDFDF5" transform="translate(359,342)"/>
<path d="M0 0 C0.33 0.99 0.66 1.98 1 3 C-0.47347113 5.38561992 -1.47735539 6.73867769 -4 8 C-4.33 7.01 -4.66 6.02 -5 5 C-4.34 5 -3.68 5 -3 5 C-2.5359375 4.0409375 -2.5359375 4.0409375 -2.0625 3.0625 C-1 1 -1 1 0 0 Z " fill="#533628" transform="translate(148,190)"/>
<path d="M0 0 C1.16945792 0.80847729 2.33550461 1.62189112 3.5 2.4375 C4.47453125 3.11619141 4.47453125 3.11619141 5.46875 3.80859375 C5.9740625 4.20175781 6.479375 4.59492188 7 5 C7 5.33 7 5.66 7 6 C4.125 6.125 4.125 6.125 1 6 C0.34 5.34 -0.32 4.68 -1 4 C-0.34 4 0.32 4 1 4 C0.67 2.68 0.34 1.36 0 0 Z " fill="#675A4E" transform="translate(376,180)"/>
<path d="M0 0 C0.66 0.33 1.32 0.66 2 1 C1.34 2.32 0.68 3.64 0 5 C-0.99 5 -1.98 5 -3 5 C-3.33 4.34 -3.66 3.68 -4 3 C-3 1 -3 1 0 0 Z " fill="#F1EEE4" transform="translate(174,139)"/>
<path d="M0 0 C1.98 0.66 3.96 1.32 6 2 C3.85446026 4.14553974 2.97397616 4.72963853 0 5 C-1.75 3.5625 -1.75 3.5625 -3 2 C-2.34 2 -1.68 2 -1 2 C-0.67 1.34 -0.34 0.68 0 0 Z " fill="#5D4638" transform="translate(302,114)"/>
<path d="M0 0 C1.43655854 -0.08131463 2.8744483 -0.13933559 4.3125 -0.1875 C5.51326172 -0.23970703 5.51326172 -0.23970703 6.73828125 -0.29296875 C9.47851584 0.06198392 10.29171079 0.89366282 12 3 C3.96428571 2.19642857 3.96428571 2.19642857 0 0 Z " fill="#E5F0C4" transform="translate(256,373)"/>
<path d="M0 0 C1.32 0.66 2.64 1.32 4 2 C3.34 3.32 2.68 4.64 2 6 C1.01 6 0.02 6 -1 6 C-0.67 4.02 -0.34 2.04 0 0 Z " fill="#584231" transform="translate(347,219)"/>
<path d="M0 0 C3.057952 1.73559438 5.63379989 3.38472619 8 6 C4.62537285 5.45276317 2.91765 4.9451 0 3 C0 2.01 0 1.02 0 0 Z " fill="#9AB558" transform="translate(166,362)"/>
<path d="M0 0 C0.33 0.66 0.66 1.32 1 2 C-4.14285714 7.57142857 -4.14285714 7.57142857 -8 8 C-5.33333333 5.33333333 -2.66666667 2.66666667 0 0 Z " fill="#EFF8D2" transform="translate(377,344)"/>
<path d="M0 0 C0 1.32 0 2.64 0 4 C-0.78375 3.814375 -1.5675 3.62875 -2.375 3.4375 C-4.97089775 2.74037734 -4.97089775 2.74037734 -7 4 C-6.67 3.01 -6.34 2.02 -6 1 C-3 0 -3 0 0 0 Z " fill="#674A3C" transform="translate(233,315)"/>
<path d="M0 0 C0.66 0 1.32 0 2 0 C1.01 3.96 0.02 7.92 -1 12 C-1.33 12 -1.66 12 -2 12 C-1.85962479 10.18706911 -1.71255111 8.3746557 -1.5625 6.5625 C-1.48128906 5.55316406 -1.40007812 4.54382813 -1.31640625 3.50390625 C-1 1 -1 1 0 0 Z " fill="#594538" transform="translate(343,232)"/>
<path d="M0 0 C0.66 0 1.32 0 2 0 C2 0.66 2 1.32 2 2 C2.99 2.66 3.98 3.32 5 4 C5 4.66 5 5.32 5 6 C3.125 5.75 3.125 5.75 1 5 C-0.25 2.9375 -0.25 2.9375 -1 1 C-0.67 0.67 -0.34 0.34 0 0 Z " fill="#5E4B3D" transform="translate(212,115)"/>
<path d="M0 0 C0.66 0.33 1.32 0.66 2 1 C1.01 1.33 0.02 1.66 -1 2 C-1.33 2.99 -1.66 3.98 -2 5 C-4.97 4.505 -4.97 4.505 -8 4 C-6.66666667 3.33333333 -5.33333333 2.66666667 -4 2 C-3.29875 1.608125 -2.5975 1.21625 -1.875 0.8125 C-1.25625 0.544375 -0.6375 0.27625 0 0 Z " fill="#F0F8D4" transform="translate(300,375)"/>
<path d="M0 0 C0.99 0.99 1.98 1.98 3 3 C2.01 3.33 1.02 3.66 0 4 C-0.33 4.99 -0.66 5.98 -1 7 C-1.66 6.34 -2.32 5.68 -3 5 C-2.01 3.35 -1.02 1.7 0 0 Z " fill="#F9FCE2" transform="translate(147,368)"/>
<path d="M0 0 C0.66 0.99 1.32 1.98 2 3 C1.67 3.99 1.34 4.98 1 6 C0.01 6.33 -0.98 6.66 -2 7 C-2.33 6.01 -2.66 5.02 -3 4 C-1.5625 1.8125 -1.5625 1.8125 0 0 Z " fill="#5D4136" transform="translate(220,320)"/>
<path d="M0 0 C2.2477975 2.05233685 3.0022242 3.00667261 4 6 C2.35 5.67 0.7 5.34 -1 5 C-0.67 3.35 -0.34 1.7 0 0 Z " fill="#98B555" transform="translate(130,320)"/>
<path d="M0 0 C1.32 0.66 2.64 1.32 4 2 C1.06279492 3.52299523 -1.9168649 4.80100302 -5 6 C-3.35 4.02 -1.7 2.04 0 0 Z " fill="#E3D6C7" transform="translate(233,310)"/>
<path d="M0 0 C2.475 0.495 2.475 0.495 5 1 C4.67 2.98 4.34 4.96 4 7 C2.10786631 4.61426621 0.97608217 2.92824652 0 0 Z " fill="#99B357" transform="translate(134,304)"/>
<path d="M0 0 C1.65 1.65 3.3 3.3 5 5 C3.68 5.33 2.36 5.66 1 6 C0.34 4.35 -0.32 2.7 -1 1 C-0.67 0.67 -0.34 0.34 0 0 Z " fill="#5F4B3C" transform="translate(277,278)"/>
<path d="M0 0 C1.09658936 3.28976808 0.79953138 4.71303767 0 8 C-1.32 7.34 -2.64 6.68 -4 6 C-3.67 5.34 -3.34 4.68 -3 4 C-2.34 4 -1.68 4 -1 4 C-0.67 2.68 -0.34 1.36 0 0 Z " fill="#503929" transform="translate(193,220)"/>
<path d="M0 0 C1.65 0 3.3 0 5 0 C3.84826645 2.46800047 2.95216435 4.04783565 1 6 C0.67 4.02 0.34 2.04 0 0 Z " fill="#665848" transform="translate(275,184)"/>
<path d="M0 0 C0.66 0.33 1.32 0.66 2 1 C2 1.66 2 2.32 2 3 C0.37373596 4.38232443 -1.2925002 5.71937515 -3 7 C-2.625 4.0625 -2.625 4.0625 -2 1 C-1.34 0.67 -0.68 0.34 0 0 Z " fill="#FCFEF4" transform="translate(154,147)"/>
<path d="M0 0 C1.89213369 2.38573379 3.02391783 4.07175348 4 7 C1.525 6.01 1.525 6.01 -1 5 C-0.67 3.35 -0.34 1.7 0 0 Z " fill="#E8DDCD" transform="translate(262,105)"/>
<defs>
<linearGradient id="paint0_linear_4741_2341" x1="63.5668" y1="0" x2="63.5668" y2="125.665" gradientUnits="userSpaceOnUse">
<stop stop-color="#a8d5ba"/>
<stop offset="1" stop-color="#E2E5ED"/>
</linearGradient>
</defs>
</svg>
