<?xml version="1.0" encoding="UTF-8"?>
<svg version="1.1" xmlns="http://www.w3.org/2000/svg" width="823" height="882">
<path d="M0 0 C1.30037201 0.00406357 1.30037201 0.00406357 2.62701416 0.00820923 C16.84035647 0.07526407 30.44627127 1.13483646 44.3125 4.4375 C45.47120605 4.69442627 45.47120605 4.69442627 46.65332031 4.95654297 C71.72451003 10.59349945 96.17973313 22.51634204 116.3125 38.4375 C117.19808594 39.13230469 118.08367187 39.82710937 118.99609375 40.54296875 C137.43451932 55.319863 137.43451932 55.319863 140.42797852 60.28930664 C141.89122103 62.57915384 143.04593255 63.90837415 145.3125 65.4375 C149.95207332 66.38843662 154.54436502 66.52710422 159.26211548 66.5904541 C163.32322986 66.6498285 167.37956629 66.83053282 171.4375 66.99609375 C172.26643265 67.02728302 173.0953653 67.05847229 173.94941711 67.09060669 C261.68006595 70.61103547 352.82091868 105.76218397 417.73046875 165.1015625 C419.82605266 166.99741603 421.94683927 168.84942481 424.0859375 170.6953125 C428.47460408 174.52917279 432.63262693 178.56544491 436.75 182.6875 C437.87075928 183.80946777 437.87075928 183.80946777 439.01416016 184.95410156 C443.71777633 189.71001432 448.10928886 194.52913814 452.23046875 199.80078125 C454.12807776 202.20394463 456.10962478 204.50693524 458.13110352 206.8059082 C503.38896647 258.68254192 529.51665575 328.69210624 526.3125 397.4375 C524.76651831 419.3339203 519.56179403 443.80384769 507.72119141 462.58203125 C504.87397318 467.679846 504.62569974 471.96102345 504.7109375 477.7109375 C504.70293121 478.67415924 504.69492493 479.63738098 504.68667603 480.62979126 C504.66377232 483.69112903 504.67297048 486.75112939 504.6875 489.8125 C504.71782861 513.35887302 504.53039078 536.15923029 489.3125 555.4375 C488.84070313 556.07300781 488.36890625 556.70851563 487.8828125 557.36328125 C483.45353799 563.00622703 477.47225611 568.0020912 470.64306641 570.35864258 C464.85505257 572.36497801 464.85505257 572.36497801 460.97583008 576.82617188 C460.11020863 579.83547472 459.54811511 582.78165984 459.0625 585.875 C458.61082519 588.14586578 458.15235923 590.41539018 457.6875 592.68359375 C457.46449219 593.8216748 457.24148438 594.95975586 457.01171875 596.13232422 C447.25528313 642.25055934 421.43963002 687.45563247 390.3125 722.4375 C389.66394043 723.17218506 389.01538086 723.90687012 388.34716797 724.66381836 C382.73387267 730.97212255 376.90554011 737.02757162 370.9375 743 C370.06867187 743.88107422 369.19984375 744.76214844 368.3046875 745.66992188 C362.29054359 751.69741078 355.99699113 757.16769257 349.3125 762.4375 C348.5911084 763.01282471 347.8697168 763.58814941 347.12646484 764.1809082 C290.47119563 809.08519995 220.34603096 833.00287667 148.1875 832.75 C147.10644989 832.74817719 146.02539978 832.74635437 144.91159058 832.74447632 C129.16219195 832.6997697 113.84722485 832.2241806 98.3125 829.4375 C96.76127441 829.18009033 96.76127441 829.18009033 95.17871094 828.91748047 C52.05575888 821.73460114 9.6327614 805.9670077 -26.6875 781.4375 C-26.82736328 781.99920898 -26.96722656 782.56091797 -27.11132812 783.13964844 C-33.16169049 807.11737068 -41.28026047 828.82078253 -56.6875 848.4375 C-57.09871094 848.96230957 -57.50992188 849.48711914 -57.93359375 850.02783203 C-70.73021718 866.19923264 -86.69364564 879.47036858 -107.6875 882.4375 C-121.67437346 883.66400492 -133.51301129 879.04744323 -144.875 871.25 C-154.72348318 861.40151682 -162.28653028 848.05466643 -162.77685547 833.84863281 C-162.75877114 832.04348824 -162.73614047 830.23838415 -162.70922852 828.43334961 C-162.64570713 820.22338839 -162.70481108 814.20752108 -168.25 807.875 C-169.1471875 806.98941406 -170.044375 806.10382812 -170.96875 805.19140625 C-173.991761 802.1293046 -176.07611571 798.99601211 -178.25 795.3125 C-178.89066406 794.23742187 -179.53132813 793.16234375 -180.19140625 792.0546875 C-181.05967936 790.53577632 -181.90506925 789.0023615 -182.6875 787.4375 C-185.60693762 786.72265828 -188.48647984 786.11311375 -191.4375 785.5625 C-197.42537849 784.40538143 -203.07367009 783.06516088 -208.8125 781 C-214.82993493 779.05251158 -218.08982495 779.82185911 -223.6875 782.4375 C-237.60235587 787.77234757 -252.83489228 787.91294956 -266.65234375 782.21484375 C-279.70414925 775.6431773 -288.93095626 765.34107172 -294.0625 751.6875 C-299.75744123 732.6879978 -295.69538567 712.61689879 -286.6809082 695.3503418 C-281.99830022 686.81820278 -276.33530167 679.51573488 -269.6875 672.4375 C-269.17670898 671.88964844 -268.66591797 671.34179688 -268.13964844 670.77734375 C-252.74118157 654.42062355 -234.33453225 642.54439398 -214.9765625 631.37109375 C-211.9339497 629.76768749 -211.9339497 629.76768749 -210.6875 628.4375 C-210.78874617 615.17425143 -215.07736545 602.78653484 -219.9375 590.625 C-229.82721962 565.29350199 -236.73363828 538.99674357 -240.9375 512.125 C-241.08856201 511.16158691 -241.23962402 510.19817383 -241.39526367 509.20556641 C-244.12736875 490.62478637 -245.06224346 472.20372957 -245 453.4375 C-244.99850952 452.32120209 -244.99701904 451.20490417 -244.9954834 450.05477905 C-244.95380085 432.64842518 -244.24825161 415.67450702 -241.6875 398.4375 C-241.55359863 397.45104492 -241.41969727 396.46458984 -241.28173828 395.44824219 C-229.19087107 306.72326026 -182.61733107 219.22453883 -113.6875 161.4375 C-112.79546875 160.65632812 -111.9034375 159.87515625 -110.984375 159.0703125 C-100.78040661 150.18600695 -89.94640664 141.94343776 -78.6875 134.4375 C-79.6304895 134.42348145 -79.6304895 134.42348145 -80.5925293 134.40917969 C-99.63190744 134.05392192 -116.34205497 132.46415736 -130.6875 118.4375 C-140.86266392 105.93658433 -143.96141007 93.2617404 -142.6875 77.4375 C-139.37467291 58.93755594 -126.52901526 45.49804019 -111.64453125 35.1015625 C-92.8313652 22.2947594 -72.46119223 12.13692248 -50.4375 6.25 C-49.55827881 6.01200684 -48.67905762 5.77401367 -47.77319336 5.52880859 C-31.94566531 1.48369665 -16.30050012 -0.12055943 0 0 Z " fill="#FCFDFE" transform="translate(296.6875,-0.4375)"/>
<path d="M0 0 C0.85980469 0.76957031 1.71960938 1.53914063 2.60546875 2.33203125 C3.57871094 3.17378906 4.55195313 4.01554687 5.5546875 4.8828125 C13.57902253 11.92260603 22.23999484 19.9635419 27.26708984 29.47631836 C29.38428139 32.6707096 29.38428139 32.6707096 33.13525391 33.07324219 C34.554745 33.10092208 35.97509073 33.09656805 37.39453125 33.06640625 C38.16145798 33.07446289 38.9283847 33.08251953 39.71855164 33.09082031 C41.36517098 33.10539537 43.01194834 33.10687656 44.65859985 33.09655762 C48.13128442 33.07694328 51.60190382 33.12632462 55.07423401 33.17266846 C56.81641411 33.19557702 58.55863761 33.21539315 60.30088806 33.2321167 C126.2839211 33.89620207 194.82060972 52.82229475 250.60546875 88.33203125 C251.60191406 88.95851563 252.59835937 89.585 253.625 90.23046875 C268.42239402 99.82549579 282.48347684 110.557747 295.60546875 122.33203125 C296.12689453 122.79706055 296.64832031 123.26208984 297.18554688 123.74121094 C307.212612 132.70784176 316.97684869 141.99477356 325.60546875 152.33203125 C326.0348877 152.8317041 326.46430664 153.33137695 326.90673828 153.84619141 C358.37117716 190.51416102 379.31040998 233.82197245 387.60546875 281.33203125 C387.87593018 282.75854004 387.87593018 282.75854004 388.15185547 284.21386719 C389.06167047 290.46798841 388.85036702 296.83369673 388.85546875 303.14453125 C388.85648087 304.26092484 388.85648087 304.26092484 388.85751343 305.39987183 C388.84171967 316.34051837 388.43283198 326.70345355 385.60546875 337.33203125 C385.29996094 338.57082031 384.99445312 339.80960937 384.6796875 341.0859375 C382.11789039 350.65143562 377.91930869 359.3689445 373.43945312 368.17626953 C372.74239258 369.56628174 372.74239258 369.56628174 372.03125 370.984375 C371.61270752 371.79898193 371.19416504 372.61358887 370.76293945 373.45288086 C367.69086596 381.09450977 367.31417037 388.56725884 367.296875 396.7265625 C367.27171412 398.9212266 367.2463161 401.115888 367.22070312 403.31054688 C367.19203355 406.72663663 367.16797895 410.14267947 367.14916992 413.55883789 C367.12733083 416.88582015 367.0878836 420.21226895 367.046875 423.5390625 C367.04675919 424.54258255 367.04664337 425.5461026 367.04652405 426.58003235 C366.91826744 435.91729748 366.09201648 446.14505902 359.19140625 453.0625 C354.5341071 456.79063356 349.09726084 456.76553721 343.359375 456.6484375 C337.980858 456.03048023 334.16801509 454.04198762 330.53515625 450.06640625 C328.49186927 447.17106032 327.37751511 444.59677517 326.16796875 441.26953125 C307.42631748 392.12037727 276.52886868 343.68999927 233.26953125 312.53857422 C231.4747965 311.2372862 229.71173295 309.89925256 227.94921875 308.5546875 C215.8906006 299.42112546 203.1668422 292.06049486 189.79296875 285.01953125 C188.36114258 284.26361694 188.36114258 284.26361694 186.90039062 283.49243164 C180.92887967 280.39219803 174.90294435 277.70140396 168.60546875 275.33203125 C168.095 276.13125 167.58453125 276.93046875 167.05859375 277.75390625 C152.2705365 300.09331189 131.88337381 313.60902114 105.60546875 319.33203125 C95.4181571 321.25936048 78.69271273 323.13115034 69.7421875 317.0703125 C68.60546875 315.33203125 68.60546875 315.33203125 68.5859375 312.9375 C69.96136599 309.42251609 71.98566408 307.99425883 74.91796875 305.64453125 C80.23247466 301.03311173 82.82616455 297.09338722 84.60546875 290.33203125 C84.78722656 289.72617187 84.96898437 289.1203125 85.15625 288.49609375 C87.94082468 275.08170792 84.37779636 265.69986688 77.60546875 254.33203125 C58.68172772 253.94724194 40.36846731 254.5026418 21.60546875 257.33203125 C20.65768555 257.47125 19.70990234 257.61046875 18.73339844 257.75390625 C-25.10721766 264.37830155 -67.02336899 282.76798259 -102.39453125 309.33203125 C-102.97686523 309.76483398 -103.55919922 310.19763672 -104.15917969 310.64355469 C-111.94505861 316.45854009 -118.9681412 322.65795466 -125.73046875 329.6328125 C-127.88351531 331.8142717 -130.04419056 333.81091401 -132.39453125 335.76953125 C-178.69851131 375.58140689 -204.08372441 441.42439918 -211.39453125 500.33203125 C-211.49620605 501.12681885 -211.59788086 501.92160645 -211.70263672 502.74047852 C-214.05191996 523.18094201 -214.02492976 544.73315791 -207.39453125 564.33203125 C-207.17522949 565.00250488 -206.95592773 565.67297852 -206.72998047 566.36376953 C-202.09794816 580.15577585 -194.51866208 592.93706929 -186.33203125 604.89453125 C-179.25371632 615.26553649 -173.29606178 626.12966616 -169.01953125 637.95703125 C-168.67970215 638.88588135 -168.67970215 638.88588135 -168.33300781 639.83349609 C-164.2637969 651.81778116 -162.83139308 663.85417387 -162.89453125 676.45703125 C-162.89629364 677.1250174 -162.89805603 677.79300354 -162.89987183 678.48123169 C-163.05745807 705.4717857 -172.24641548 730.1386001 -190.39453125 750.33203125 C-201.47368692 761.26079114 -201.47368692 761.26079114 -206.95703125 761.39453125 C-209.94859803 760.09051496 -210.60578911 758.67370536 -211.79418945 755.70629883 C-213.39177714 749.38806366 -212.74486339 742.4698354 -212.65820312 735.99804688 C-212.78929587 723.22685322 -217.38920236 715.11578852 -226.0234375 706.015625 C-236.3468083 694.33167815 -245.39453125 677.16280231 -245.39453125 661.33203125 C-246.1819873 661.75427979 -246.1819873 661.75427979 -246.98535156 662.18505859 C-253.14398327 665.23480441 -258.31503493 666.03262156 -265.14453125 665.95703125 C-266.13445068 665.95372803 -267.12437012 665.9504248 -268.14428711 665.94702148 C-278.08614065 665.68886329 -286.96090654 663.08690296 -296.33178711 659.97583008 C-304.95604028 657.28413217 -317.26933373 656.45839875 -325.64453125 660.20703125 C-326.9087309 660.88969906 -328.16017122 661.59678202 -329.39453125 662.33203125 C-332.35524271 664.01708547 -334.54368853 664.64927587 -337.95703125 664.70703125 C-338.72144531 664.73539063 -339.48585938 664.76375 -340.2734375 664.79296875 C-342.39453125 664.33203125 -342.39453125 664.33203125 -344.14453125 662.59765625 C-346.69105104 657.98208913 -346.05004365 652.81751576 -344.73828125 647.84375 C-335.41067874 622.63510012 -311.98243863 608.06519265 -289.953125 595.05078125 C-276.28747232 586.95096838 -266.02421245 578.62191903 -260.39453125 563.33203125 C-259.02860626 556.80841645 -259.45259021 550.41986526 -260.08203125 543.83203125 C-260.14841797 542.96578125 -260.21480469 542.09953125 -260.28320312 541.20703125 C-261.5800381 526.99290301 -265.66491559 513.78293003 -270.85305786 500.57662964 C-276.45194562 486.2701839 -281.15938126 471.9924917 -284.74511719 457.03613281 C-285.32424874 454.6246813 -285.93547642 452.22457506 -286.55859375 449.82421875 C-288.96516582 440.21351419 -290.30343085 430.45863352 -291.58203125 420.64453125 C-291.74920654 419.36167236 -291.91638184 418.07881348 -292.08862305 416.75708008 C-301.57843443 340.42301251 -284.96625853 260.38057214 -243.39453125 195.33203125 C-242.9984668 194.7076416 -242.60240234 194.08325195 -242.19433594 193.43994141 C-230.96719204 175.85857729 -218.13389788 159.3634812 -203.93359375 144.09375 C-201.93724673 141.9223387 -200.02912096 139.72337119 -198.14453125 137.45703125 C-174.14010775 109.83471617 -140.08231223 86.25088086 -107.39453125 70.33203125 C-107.67016687 54.79620527 -113.45836232 41.44564648 -124.14453125 30.08203125 C-140.39509961 14.74300348 -158.8839137 12.07295504 -180.27929688 12.45898438 C-181.97022461 12.47541992 -181.97022461 12.47541992 -183.6953125 12.4921875 C-185.22925659 12.51744507 -185.22925659 12.51744507 -186.79418945 12.54321289 C-189.39453125 12.33203125 -189.39453125 12.33203125 -192.39453125 10.33203125 C-191.96959083 5.51603983 -189.7088699 2.65092465 -186.39453125 -0.66796875 C-183.73659439 -2.80687931 -180.94079314 -4.68393406 -178.08203125 -6.54296875 C-177.28949951 -7.0632666 -176.49696777 -7.58356445 -175.68041992 -8.11962891 C-168.20079914 -12.94206503 -160.50417 -17.0198828 -152.39453125 -20.66796875 C-150.615625 -21.48201172 -150.615625 -21.48201172 -148.80078125 -22.3125 C-141.55031522 -25.42547183 -134.30133191 -27.62306223 -126.64453125 -29.48046875 C-125.7935083 -29.68760498 -124.94248535 -29.89474121 -124.06567383 -30.1081543 C-82.04802177 -39.72782514 -32.74253178 -28.28439584 0 0 Z " fill="#0055A5" transform="translate(384.39453125,69.66796875)"/>
<path d="M0 0 C1.66666667 1.66666667 3.33333333 3.33333333 5 5 C6.28973279 5.71184845 7.58144178 6.42012696 8.875 7.125 C10.671875 8.390625 10.671875 8.390625 12 10 C12.5572714 13.79475286 11.75233743 17.27042483 11 21 C10.82984375 22.05832031 10.6596875 23.11664062 10.484375 24.20703125 C1.60744937 74.9079334 -23.5185717 121.30180998 -58 159 C-58.91088242 160.01497377 -59.821009 161.03062626 -60.73046875 162.046875 C-65.8627733 167.75684154 -71.10359019 173.07272329 -77 178 C-78.00463528 178.8870278 -79.00704821 179.77657591 -80.0078125 180.66796875 C-117.10472745 213.4938395 -164.04111335 235.28136134 -212.75439453 243.61376953 C-214.67120743 243.94344968 -216.5841352 244.29558724 -218.49609375 244.65234375 C-248.4691205 250.1056036 -282.25219253 248.85180717 -312 243 C-313.06379883 242.79101074 -314.12759766 242.58202148 -315.22363281 242.36669922 C-363.79572809 232.44264853 -409.18215279 209.40806092 -445.33984375 175.47265625 C-447.49351994 173.47078103 -449.67980983 171.56812291 -451.9375 169.6875 C-462.67733608 160.21772752 -470.49890054 150.20698957 -477.37890625 137.66796875 C-479.73137392 133.39305439 -482.34942208 129.38368988 -485.125 125.375 C-497.88066876 106.61252055 -506.24599873 87.04822652 -506.0625 64.125 C-506.05798828 63.05507813 -506.05347656 61.98515625 -506.04882812 60.8828125 C-506.03709749 58.25515014 -506.02068228 55.62760462 -506 53 C-458.24071596 37.92851257 -406.75121156 40.87227251 -362.0703125 64.05078125 C-359.190329 65.55015837 -356.31361046 67.05570976 -353.4375 68.5625 C-341.87274416 74.61560962 -330.56451289 80.29166309 -318 84 C-317.0311084 84.2902002 -316.0622168 84.58040039 -315.06396484 84.87939453 C-233.84851526 108.83090026 -149.8899022 94.79506992 -75.96484375 55.30078125 C-54.22995175 43.4342904 -33.49597016 28.83978806 -15.25390625 12.0703125 C-12.44783163 9.49280895 -9.57389262 6.99914727 -6.69140625 4.5078125 C-4.96919436 3.01648381 -4.96919436 3.01648381 -3.40234375 1.3046875 C-2 0 -2 0 0 0 Z " fill="#1953A4" transform="translate(699,534)"/>
<path d="M0 0 C1.30037201 0.00406357 1.30037201 0.00406357 2.62701416 0.00820923 C16.84035647 0.07526407 30.44627127 1.13483646 44.3125 4.4375 C45.47120605 4.69442627 45.47120605 4.69442627 46.65332031 4.95654297 C71.72451003 10.59349945 96.17973313 22.51634204 116.3125 38.4375 C117.19808594 39.13230469 118.08367187 39.82710937 118.99609375 40.54296875 C137.43451932 55.319863 137.43451932 55.319863 140.42797852 60.28930664 C141.89122103 62.57915384 143.04593255 63.90837415 145.3125 65.4375 C149.95207332 66.38843662 154.54436502 66.52710422 159.26211548 66.5904541 C163.32322986 66.6498285 167.37956629 66.83053282 171.4375 66.99609375 C172.26643265 67.02728302 173.0953653 67.05847229 173.94941711 67.09060669 C261.68006595 70.61103547 352.82091868 105.76218397 417.73046875 165.1015625 C419.82605266 166.99741603 421.94683927 168.84942481 424.0859375 170.6953125 C428.47460408 174.52917279 432.63262693 178.56544491 436.75 182.6875 C437.87075928 183.80946777 437.87075928 183.80946777 439.01416016 184.95410156 C443.71777633 189.71001432 448.10928886 194.52913814 452.23046875 199.80078125 C454.12807776 202.20394463 456.10962478 204.50693524 458.13110352 206.8059082 C503.38896647 258.68254192 529.51665575 328.69210624 526.3125 397.4375 C524.76651831 419.3339203 519.56179403 443.80384769 507.72119141 462.58203125 C504.87397318 467.679846 504.62569974 471.96102345 504.7109375 477.7109375 C504.70293121 478.67415924 504.69492493 479.63738098 504.68667603 480.62979126 C504.66377232 483.69112903 504.67297048 486.75112939 504.6875 489.8125 C504.71782861 513.35887302 504.53039078 536.15923029 489.3125 555.4375 C488.84070313 556.07300781 488.36890625 556.70851563 487.8828125 557.36328125 C483.45353799 563.00622703 477.47225611 568.0020912 470.64306641 570.35864258 C464.85505257 572.36497801 464.85505257 572.36497801 460.97583008 576.82617188 C460.11020863 579.83547472 459.54811511 582.78165984 459.0625 585.875 C458.61082519 588.14586578 458.15235923 590.41539018 457.6875 592.68359375 C457.46449219 593.8216748 457.24148438 594.95975586 457.01171875 596.13232422 C447.25528313 642.25055934 421.43963002 687.45563247 390.3125 722.4375 C389.66394043 723.17218506 389.01538086 723.90687012 388.34716797 724.66381836 C382.73387267 730.97212255 376.90554011 737.02757162 370.9375 743 C370.06867187 743.88107422 369.19984375 744.76214844 368.3046875 745.66992188 C362.29054359 751.69741078 355.99699113 757.16769257 349.3125 762.4375 C348.5911084 763.01282471 347.8697168 763.58814941 347.12646484 764.1809082 C290.47119563 809.08519995 220.34603096 833.00287667 148.1875 832.75 C147.10644989 832.74817719 146.02539978 832.74635437 144.91159058 832.74447632 C129.16219195 832.6997697 113.84722485 832.2241806 98.3125 829.4375 C96.76127441 829.18009033 96.76127441 829.18009033 95.17871094 828.91748047 C52.05575888 821.73460114 9.6327614 805.9670077 -26.6875 781.4375 C-26.82736328 781.99920898 -26.96722656 782.56091797 -27.11132812 783.13964844 C-33.16169049 807.11737068 -41.28026047 828.82078253 -56.6875 848.4375 C-57.09871094 848.96230957 -57.50992188 849.48711914 -57.93359375 850.02783203 C-70.73021718 866.19923264 -86.69364564 879.47036858 -107.6875 882.4375 C-121.67437346 883.66400492 -133.51301129 879.04744323 -144.875 871.25 C-154.72348318 861.40151682 -162.28653028 848.05466643 -162.77685547 833.84863281 C-162.75877114 832.04348824 -162.73614047 830.23838415 -162.70922852 828.43334961 C-162.64570713 820.22338839 -162.70481108 814.20752108 -168.25 807.875 C-169.1471875 806.98941406 -170.044375 806.10382812 -170.96875 805.19140625 C-173.991761 802.1293046 -176.07611571 798.99601211 -178.25 795.3125 C-178.89066406 794.23742187 -179.53132813 793.16234375 -180.19140625 792.0546875 C-181.05967936 790.53577632 -181.90506925 789.0023615 -182.6875 787.4375 C-185.60693762 786.72265828 -188.48647984 786.11311375 -191.4375 785.5625 C-197.42537849 784.40538143 -203.07367009 783.06516088 -208.8125 781 C-214.82993493 779.05251158 -218.08982495 779.82185911 -223.6875 782.4375 C-237.60235587 787.77234757 -252.83489228 787.91294956 -266.65234375 782.21484375 C-279.70414925 775.6431773 -288.93095626 765.34107172 -294.0625 751.6875 C-299.75744123 732.6879978 -295.69538567 712.61689879 -286.6809082 695.3503418 C-281.99830022 686.81820278 -276.33530167 679.51573488 -269.6875 672.4375 C-269.17670898 671.88964844 -268.66591797 671.34179688 -268.13964844 670.77734375 C-252.74118157 654.42062355 -234.33453225 642.54439398 -214.9765625 631.37109375 C-211.9339497 629.76768749 -211.9339497 629.76768749 -210.6875 628.4375 C-210.78874617 615.17425143 -215.07736545 602.78653484 -219.9375 590.625 C-229.82721962 565.29350199 -236.73363828 538.99674357 -240.9375 512.125 C-241.08856201 511.16158691 -241.23962402 510.19817383 -241.39526367 509.20556641 C-244.12736875 490.62478637 -245.06224346 472.20372957 -245 453.4375 C-244.99850952 452.32120209 -244.99701904 451.20490417 -244.9954834 450.05477905 C-244.95380085 432.64842518 -244.24825161 415.67450702 -241.6875 398.4375 C-241.55359863 397.45104492 -241.41969727 396.46458984 -241.28173828 395.44824219 C-229.19087107 306.72326026 -182.61733107 219.22453883 -113.6875 161.4375 C-112.79546875 160.65632812 -111.9034375 159.87515625 -110.984375 159.0703125 C-100.78040661 150.18600695 -89.94640664 141.94343776 -78.6875 134.4375 C-79.6304895 134.42348145 -79.6304895 134.42348145 -80.5925293 134.40917969 C-99.63190744 134.05392192 -116.34205497 132.46415736 -130.6875 118.4375 C-140.86266392 105.93658433 -143.96141007 93.2617404 -142.6875 77.4375 C-139.37467291 58.93755594 -126.52901526 45.49804019 -111.64453125 35.1015625 C-92.8313652 22.2947594 -72.46119223 12.13692248 -50.4375 6.25 C-49.55827881 6.01200684 -48.67905762 5.77401367 -47.77319336 5.52880859 C-31.94566531 1.48369665 -16.30050012 -0.12055943 0 0 Z M-45.6875 19.4375 C-46.80729248 19.71037842 -46.80729248 19.71037842 -47.94970703 19.98876953 C-59.4290996 22.82628671 -70.06440292 27.29288932 -80.6875 32.4375 C-81.66565674 32.90712158 -81.66565674 32.90712158 -82.66357422 33.38623047 C-90.42113314 37.16206886 -97.61261003 41.56349379 -104.6875 46.5 C-105.38174072 46.98243164 -106.07598145 47.46486328 -106.79125977 47.96191406 C-115.6738026 54.32635954 -124.25200606 62.36707301 -126.6875 73.4375 C-127.61392747 81.6185672 -126.11955828 88.78732777 -121.1796875 95.48046875 C-115.88350422 101.25700354 -109.34479958 104.16720235 -101.6875 105.4375 C-99.68542156 105.48345827 -97.68174018 105.47675428 -95.6796875 105.4296875 C-94.52726563 105.41292969 -93.37484375 105.39617187 -92.1875 105.37890625 C-89.79410572 105.33506174 -87.40084411 105.28313947 -85.0078125 105.22265625 C-75.66816037 105.10850495 -66.40242888 105.74708013 -58.6875 111.5625 C-56.22297348 113.38371261 -54.63206349 114.45597884 -51.6875 115.4375 C-50.6953125 117.171875 -50.6953125 117.171875 -49.6875 119.4375 C-48.65935062 121.19547562 -47.61703531 122.94522427 -46.5625 124.6875 C-46.02367187 125.57953125 -45.48484375 126.4715625 -44.9296875 127.390625 C-44.51976562 128.06609375 -44.10984375 128.7415625 -43.6875 129.4375 C-44.46480469 129.63730469 -45.24210938 129.83710938 -46.04296875 130.04296875 C-51.1170822 131.98451055 -55.44339709 134.81631293 -60 137.75 C-60.97259766 138.37302002 -61.94519531 138.99604004 -62.94726562 139.63793945 C-71.22175434 145.00618356 -79.07024652 150.79896902 -86.78515625 156.93652344 C-88.589375 158.36007797 -90.41346455 159.75132063 -92.25 161.1328125 C-102.04430296 168.54980372 -110.88870727 176.87726469 -119.6875 185.4375 C-120.40325195 186.13133789 -121.11900391 186.82517578 -121.85644531 187.54003906 C-129.17958938 194.663733 -136.31649715 201.77985486 -142.6328125 209.82421875 C-144.82848803 212.61681747 -147.12694077 215.3018869 -149.4375 218 C-209.27637139 290.10169095 -235.24084296 386.28513923 -228.0625 478.875 C-224.60301086 515.55348482 -214.94293577 550.27600306 -201.85839844 584.61328125 C-196.67142713 598.25385403 -190.24004383 617.50785286 -195.68359375 632.109375 C-197.16846433 634.27989404 -198.64957612 635.77834177 -200.6875 637.4375 C-201.35652344 637.98792969 -202.02554688 638.53835938 -202.71484375 639.10546875 C-207.13505148 642.4074017 -211.87063201 645.13655275 -216.64697266 647.87963867 C-230.1315844 655.63443061 -242.44520432 664.65329447 -253.6875 675.4375 C-254.96560547 676.63826172 -254.96560547 676.63826172 -256.26953125 677.86328125 C-268.8416314 689.98301198 -279.39093343 705.78955972 -280.08984375 723.68920898 C-280.24854752 733.83853546 -278.58974764 742.23355407 -271.46484375 749.90234375 C-264.31398106 756.07880317 -257.15420748 757.79417002 -247.92578125 757.7265625 C-241.68801285 757.16975326 -236.05355876 754.89740859 -230.75 751.625 C-221.79598113 748.1530335 -211.73471376 752.46348719 -203.05175781 755.23681641 C-197.27195053 756.99048349 -192.15695364 757.64850111 -186.12939453 757.70703125 C-175.24722892 757.87679381 -175.24722892 757.87679381 -172.12890625 760.99707031 C-169.46951731 765.1290648 -167.99806712 769.68171324 -166.47363281 774.32421875 C-163.46081 782.42328529 -156.30746941 789.17866439 -150.47265625 795.34375 C-147.55618709 798.76437904 -147.55189411 801.73483841 -147.4765625 806.06640625 C-147.44820312 807.18466797 -147.41984375 808.30292969 -147.390625 809.45507812 C-147.33914754 811.79086792 -147.29470468 814.12682494 -147.2578125 816.46289062 C-146.95119876 827.63512861 -144.96497266 837.81461616 -137.0546875 846.16015625 C-130.61440816 852.03727215 -124.41815719 854.04736185 -115.734375 853.77734375 C-101.5136346 852.19118424 -89.70931449 840.9671545 -81.1015625 830.265625 C-58.11122818 800.7467191 -51.9252235 769.01895402 -52.6875 732.4375 C-51.85089844 733.10394531 -51.01429688 733.77039063 -50.15234375 734.45703125 C-46.34954407 737.47481889 -42.52426636 740.4630443 -38.6875 743.4375 C-38.08921387 743.90188477 -37.49092773 744.36626953 -36.87451172 744.84472656 C-26.34839751 752.95256057 -15.24627358 759.89788864 -3.6875 766.4375 C-2.800625 766.93926758 -1.91375 767.44103516 -1 767.95800781 C42.14463314 792.05639306 91.42401115 804.64464381 140.8125 804.6875 C141.87865036 804.68851212 141.87865036 804.68851212 142.96633911 804.68954468 C212.16545811 804.5866485 280.51988087 780.42862735 333.3125 735.4375 C334.39647548 734.53826639 335.48114879 733.63987351 336.56640625 732.7421875 C348.42250679 722.85652332 359.68663699 712.22702547 369.234375 700.0625 C370.61604492 698.31723273 372.04390698 696.60753463 373.515625 694.9375 C387.00641391 679.57050866 398.02068669 661.61355658 407.3125 643.4375 C407.72161621 642.64375977 408.13073242 641.85001953 408.55224609 641.03222656 C423.22333377 612.27576833 432.55117544 581.31431827 437.3125 549.4375 C438.3948291 549.2677063 438.3948291 549.2677063 439.49902344 549.09448242 C449.34868128 547.44656523 458.81272215 544.29662999 465.71875 536.6796875 C473.97727121 525.06108168 476.59915411 513.57524615 476.5859375 499.5703125 C476.60622456 497.27994301 476.6270753 494.98957846 476.6484375 492.69921875 C476.67100365 489.12935181 476.68750462 485.55968105 476.69335938 481.98974609 C476.70294011 478.51625117 476.73677692 475.04361303 476.7734375 471.5703125 C476.76839203 470.51788361 476.76334656 469.46545471 476.75814819 468.38113403 C476.8880598 458.47658243 480.12663749 450.50728601 484.56030273 441.78173828 C488.39226314 434.2373328 491.43176277 426.70369942 493.75 418.5625 C493.98444824 417.74410645 494.21889648 416.92571289 494.46044922 416.08251953 C498.13563578 402.45472132 498.71960792 389.08683477 498.6875 375.0625 C498.68662384 374.12930939 498.68574768 373.19611877 498.68484497 372.23464966 C498.64054987 357.93254225 497.89184105 344.34391223 494.3125 330.4375 C493.9424585 328.93461426 493.9424585 328.93461426 493.56494141 327.40136719 C489.95923039 312.93868101 485.37523888 299.05270898 479.3125 285.4375 C478.70148438 284.06513184 478.70148438 284.06513184 478.078125 282.66503906 C464.91085034 253.46502109 447.39124685 226.37341993 425.56640625 202.875 C423.65607219 200.80905814 421.8192003 198.70799421 420 196.5625 C416.77174261 192.85229897 413.34293533 189.35929118 409.875 185.875 C409.3493042 185.34471191 408.8236084 184.81442383 408.28198242 184.26806641 C404.12472224 180.12675887 399.76702709 176.25528323 395.3125 172.4375 C394.68351807 171.89649658 394.05453613 171.35549316 393.40649414 170.7980957 C348.98310052 132.86757253 295.72328473 107.68456423 239.3125 93.4375 C237.82991699 93.06069092 237.82991699 93.06069092 236.31738281 92.67626953 C216.33266142 87.67140621 196.04980829 84.75995203 175.5625 82.75 C174.89553101 82.68250549 174.22856201 82.61501099 173.54138184 82.54547119 C166.03037163 81.79826823 158.65061769 81.35480656 151.1015625 81.55859375 C130.50756514 82.01879655 130.50756514 82.01879655 124.6796875 77.39453125 C121.57109955 74.32974305 119.0441338 70.94399763 116.61962891 67.32324219 C107.7272821 54.49461186 92.59663019 45.09486326 79.3125 37.4375 C77.63994141 36.45136719 77.63994141 36.45136719 75.93359375 35.4453125 C54.8315997 23.35385227 28.91428181 15.47021276 4.52734375 15.19921875 C3.7974826 15.18947021 3.06762146 15.17972168 2.31564331 15.16967773 C-14.08572775 14.99578473 -29.7041001 15.31722936 -45.6875 19.4375 Z " fill="#0082C8" transform="translate(296.6875,-0.4375)"/>
<path d="M0 0 C20.75911454 7.02901031 38.11718132 19.89340811 54.375 34.30078125 C107.22146397 81.0409295 168.49050328 108.93502579 240.0625 105.375 C281.85425963 102.74889619 321.28227099 92.66679507 359.29174805 75.08520508 C361.0625 74.375 361.0625 74.375 363.0625 74.375 C364.40804945 77.28618213 365.73674529 80.20475653 367.0625 83.125 C367.4440625 83.95 367.825625 84.775 368.21875 85.625 C368.5796875 86.42421875 368.940625 87.2234375 369.3125 88.046875 C369.64765625 88.7800293 369.9828125 89.51318359 370.328125 90.26855469 C371.0625 92.375 371.0625 92.375 371.0625 96.375 C369.84765625 98.19921875 369.84765625 98.19921875 368.125 100.0625 C367.485625 100.75601563 366.84625 101.44953125 366.1875 102.1640625 C360.05911733 108.54028417 353.84867621 114.69830974 347.0625 120.375 C346.52270508 120.82858887 345.98291016 121.28217773 345.42675781 121.74951172 C302.53665458 157.65190151 251.52943505 182.0352116 196.25 191.125 C194.97511719 191.33600342 193.70023437 191.54700684 192.38671875 191.7644043 C135.43695146 200.72531487 82.71475841 189.45878218 32.0625 163.375 C1.53232846 147.69248689 -28.87603521 140.15988284 -63.25 140.125 C-64.29389893 140.12348938 -64.29389893 140.12348938 -65.35888672 140.12194824 C-82.67655898 140.13876344 -99.33472933 142.01843292 -116.05078125 146.60546875 C-118.9375 147.375 -118.9375 147.375 -120.9375 147.375 C-119.11976089 101.84063526 -95.72946534 56.37395797 -67.9375 21.375 C-67.25558594 20.48683594 -66.57367188 19.59867187 -65.87109375 18.68359375 C-45.73623542 -6.95300955 -30.67161131 -9.83165877 0 0 Z " fill="#00A4E4" transform="translate(316.9375,419.625)"/>
<path d="M0 0 C0.05596898 1.43314508 0.09582057 2.86692537 0.12890625 4.30078125 C0.15283447 5.09911377 0.1767627 5.89744629 0.20141602 6.7199707 C-0.12905334 10.46088382 -2.31041248 12.62723106 -5 15 C-5.56589844 15.433125 -6.13179687 15.86625 -6.71484375 16.3125 C-12.94163733 21.10862984 -16.05756574 27.00224255 -17.515625 34.734375 C-18.00685499 42.46008308 -15.31112441 48.68563362 -11 55 C-3.63405762 63.15228481 7.91220264 64.51279336 18.36279297 65.14233398 C20.97215232 65.2427726 23.57631098 65.28983262 26.1875 65.3125 C27.13931152 65.32482666 28.09112305 65.33715332 29.07177734 65.34985352 C35.13396311 65.32138552 40.55613784 64.56592522 46.43164062 63.10644531 C57.44328456 60.37150112 57.44328456 60.37150112 62.34765625 62.3515625 C64.84870034 64.29873025 67.11226866 66.35463227 69.37841797 68.56640625 C72.52545891 71.34861408 76.15571927 73.41249129 79.75 75.5625 C80.52327637 76.02906006 81.29655273 76.49562012 82.09326172 76.97631836 C112.58057819 95.1459448 146.2310873 106.35949184 181.25 111.75 C182.03930908 111.87511963 182.82861816 112.00023926 183.6418457 112.12915039 C188.05461325 112.76866238 192.31281667 113.04564437 196.7734375 113.0234375 C210.95707416 113.15291468 210.95707416 113.15291468 214.93554688 116.75 C218.55229834 121.40915242 220.87836635 126.52595075 223 132 C220.51671364 134.92781879 218.0433299 135.94714248 214.4609375 137.234375 C212.77339355 137.84321533 212.77339355 137.84321533 211.05175781 138.46435547 C209.83842773 138.88861816 208.62509766 139.31288086 207.375 139.75 C206.75185913 139.9693219 206.12871826 140.1886438 205.48669434 140.41461182 C185.01332801 147.60282053 164.55233047 153.24211885 143 156 C141.24816406 156.22429687 141.24816406 156.22429687 139.4609375 156.453125 C109.35711901 160.12895968 77.94618074 161.46970202 48 156 C47.18885742 155.85546387 46.37771484 155.71092773 45.54199219 155.56201172 C8.4529533 148.72982034 -22.58357205 127.88289796 -51 104 C-51.61504395 103.48405273 -52.23008789 102.96810547 -52.86376953 102.43652344 C-63.44748482 93.52957629 -63.44748482 93.52957629 -67.90625 89.2265625 C-90.43746216 67.62383436 -118.74163084 54.34931174 -149 48 C-145.06680495 43.70433404 -140.86167653 40.78970096 -135.875 37.8125 C-135.08440186 37.3376416 -134.29380371 36.8627832 -133.47924805 36.37353516 C-92.36668273 11.93874685 -47.79663217 -0.78463975 0 0 Z " fill="#4DC8E9" transform="translate(449,346)"/>
<path d="M0 0 C4.95957505 1.45869854 9.16954567 3.57286747 13.625 6.125 C14.3272168 6.52460938 15.02943359 6.92421875 15.75292969 7.3359375 C31.34265412 16.30517358 45.47720418 27.19431796 59 39 C59.5048291 39.44021484 60.0096582 39.88042969 60.52978516 40.33398438 C65.76900003 44.92924462 70.75513121 49.58117326 75.23828125 54.921875 C78.08170312 58.27597796 81.09624005 61.4757982 84.08203125 64.703125 C85.7964109 66.75619065 86.94224795 68.55989475 88 71 C62.62919022 68.71832986 37.20276346 62.65245605 14 52 C13.38415039 51.72607422 12.76830078 51.45214844 12.13378906 51.16992188 C0.94595026 46.19157554 -9.56820019 40.40054604 -20 34 C-20.59731934 33.63922363 -21.19463867 33.27844727 -21.81005859 32.90673828 C-28.72240795 28.73156026 -28.72240795 28.73156026 -31 27 C-31 26.34 -31 25.68 -31 25 C-29.1640625 23.7734375 -29.1640625 23.7734375 -26.625 22.375 C-20.95429463 19.08647213 -16.01359616 15.2046798 -11 11 C-10.32582031 10.44957031 -9.65164063 9.89914062 -8.95703125 9.33203125 C-5.52582207 6.48610295 -2.65871824 3.6158568 0 0 Z " fill="#ACE0F0" transform="translate(560,372)"/>
<path d="M0 0 C6.59536977 0.52344205 11.03208297 2.960808 15.375 7.9375 C18.84585525 12.26897604 19.26224597 15.24592764 19.23828125 20.7578125 C18.79228747 24.54586355 17.36556933 26.42916767 14.9375 29.3125 C10.97732878 29.39500357 8.92075042 29.13157131 5.83203125 26.55859375 C-0.70678604 19.50452257 -4.62246769 12.81467826 -4.30078125 3.0625 C-3.88320474 -0.00429145 -3.17959255 0.32444822 0 0 Z " fill="#FAFCFD" transform="translate(693.0625,341.6875)"/>
<defs>
<linearGradient id="paint0_linear_4741_2362" x1="62.8325" y1="0" x2="62.8325" y2="125.665" gradientUnits="userSpaceOnUse">
<stop stop-color="#a8d5ba"/>
<stop offset="1" stop-color="#E2E5ED"/>
</linearGradient>
</defs>
</svg>